<?xml version="1.0" standalone="no"?>
<!DOCTYPE svg PUBLIC "-//W3C//DTD SVG 20010904//EN"
 "http://www.w3.org/TR/2001/REC-SVG-20010904/DTD/svg10.dtd">
<svg version="1.0" xmlns="http://www.w3.org/2000/svg"
 width="1024.000000pt" height="1024.000000pt" viewBox="0 0 1024.000000 1024.000000"
 preserveAspectRatio="xMidYMid meet">

<g transform="translate(0.000000,1024.000000) scale(0.100000,-0.100000)"
fill="#000000" stroke="none">
<path d="M0 8930 l0 -1310 44 0 c68 0 213 -28 308 -60 358 -120 640 -404 751
-755 46 -147 59 -231 60 -380 0 -154 -14 -239 -64 -389 -136 -408 -497 -718
-923 -791 -49 -8 -108 -15 -132 -15 l-44 0 0 -94 0 -93 77 -7 c337 -31 637
-200 845 -478 161 -214 239 -453 239 -727 0 -221 -35 -371 -127 -551 -145
-284 -384 -490 -679 -589 -92 -31 -249 -61 -317 -61 l-38 0 0 -85 0 -85 49 0
c129 0 355 57 514 128 63 29 86 30 52 2 -28 -23 -116 -170 -145 -244 -16 -40
-36 -102 -44 -137 -16 -73 -31 -176 -23 -169 2 3 45 66 95 140 50 74 129 179
177 232 97 109 213 211 232 204 7 -3 12 0 10 6 -1 6 4 13 12 16 9 3 11 0 6 -9
-5 -8 -4 -11 1 -6 5 5 9 14 9 20 0 22 245 136 350 163 147 38 378 45 524 15
157 -33 401 -136 384 -163 -4 -7 -1 -8 6 -4 17 11 147 -91 227 -177 154 -167
264 -389 305 -617 19 -103 16 -325 -5 -425 -35 -163 -98 -320 -182 -450 -19
-31 -39 -53 -44 -50 -6 3 -7 0 -4 -8 4 -12 -20 -42 -35 -42 -3 0 -5 -4 -4 -10
3 -11 -80 -98 -91 -96 -3 1 -5 -1 -3 -2 6 -9 -26 -36 -36 -30 -5 3 -7 2 -4 -4
8 -12 -220 -221 -313 -287 l-25 -18 49 7 c153 21 337 111 460 225 32 29 47 38
42 25 -20 -54 -47 -191 -57 -290 -11 -111 -7 -214 13 -337 l11 -68 94 0 c87 0
94 1 88 19 -37 116 -46 341 -20 477 43 224 151 437 321 629 62 70 107 108 201
171 184 124 345 183 558 205 256 27 559 -53 753 -199 l52 -40 -24 -15 c-22
-15 -27 -14 -62 4 -29 15 -54 19 -99 17 -51 -2 -65 1 -85 19 -24 23 -60 37
-121 47 -28 5 -39 13 -53 43 -9 20 -21 32 -25 27 -5 -5 -40 -104 -79 -219 -39
-116 -74 -219 -78 -228 -5 -14 0 -17 22 -17 42 0 214 -61 214 -76 0 -20 17
-26 38 -13 15 9 34 7 100 -15 44 -15 93 -37 107 -48 14 -11 28 -19 30 -17 7 8
44 129 91 297 27 94 51 172 55 172 4 0 43 -38 87 -85 164 -173 272 -375 328
-615 20 -84 26 -339 10 -467 l-8 -73 117 0 117 0 -6 28 c-57 266 -12 577 121
835 153 297 438 527 753 607 335 85 667 23 951 -179 255 -182 473 -543 519
-859 12 -83 9 -347 -6 -405 l-6 -27 85 0 c100 0 91 -11 107 139 17 155 -8 388
-56 523 l-14 40 53 -48 c67 -60 142 -108 242 -155 76 -35 222 -75 246 -67 6 2
-20 29 -57 59 -38 31 -103 89 -144 129 -41 40 -56 56 -32 36 23 -20 50 -36 59
-36 9 0 44 -13 77 -30 53 -25 215 -67 328 -83 l36 -5 41 131 c23 73 68 213
100 312 33 99 58 181 56 183 -2 2 -29 -6 -61 -17 -40 -15 -60 -19 -68 -11 -5
5 -6 10 -2 10 5 0 3 7 -4 15 -8 9 -9 15 -2 15 6 0 13 -4 16 -8 3 -5 21 -9 41
-10 25 -1 35 3 35 13 0 16 34 15 50 -1 7 -7 -3 -49 -29 -129 -22 -65 -38 -122
-35 -126 3 -5 1 -9 -5 -9 -6 0 -7 -15 -4 -37 4 -26 3 -34 -5 -29 -8 5 -12 -5
-12 -33 0 -27 -4 -41 -13 -41 -9 0 -12 -10 -9 -30 3 -21 0 -30 -8 -28 -7 2
-15 -3 -18 -11 -2 -8 0 -11 6 -7 6 4 8 -2 4 -16 -3 -13 -12 -27 -19 -31 -10
-6 -13 -18 -9 -35 4 -17 3 -22 -2 -14 -6 9 -12 1 -20 -24 l-11 -36 102 7 c314
21 567 131 784 337 112 108 190 214 258 352 137 275 158 622 56 917 -31 90
-88 216 -113 246 -58 73 -240 243 -295 277 -62 38 -85 58 -40 35 142 -75 381
-325 521 -547 32 -51 61 -92 63 -92 9 0 -9 134 -28 208 -25 99 -85 223 -148
306 -29 38 -46 66 -39 63 7 -3 54 -24 105 -46 136 -60 319 -101 447 -101 l56
0 0 83 0 83 -105 12 c-470 56 -859 375 -998 819 -77 243 -75 522 4 757 147
440 544 765 1001 818 l98 12 0 93 0 93 -44 0 c-111 0 -323 60 -462 131 -271
138 -488 390 -586 679 -93 276 -84 588 26 842 76 176 203 353 328 458 179 150
441 260 660 277 l78 6 0 83 0 84 -54 0 c-123 0 -345 -55 -483 -120 l-81 -38
45 62 c56 76 114 190 141 277 22 70 48 226 39 235 -2 3 -21 -24 -41 -60 -71
-126 -263 -367 -357 -447 -163 -139 -371 -240 -574 -280 -88 -17 -315 -17
-415 0 -421 74 -778 387 -910 798 -113 350 -63 750 130 1042 108 164 331 382
519 511 34 22 61 43 61 45 0 9 -82 -7 -170 -32 -107 -30 -235 -97 -323 -169
-43 -34 -67 -48 -63 -37 39 123 49 188 53 349 4 111 1 195 -7 242 l-12 72 -85
0 -85 0 9 -62 c12 -93 9 -334 -6 -403 -34 -158 -135 -409 -154 -383 -6 9 -7 8
-3 -5 3 -11 -5 -34 -20 -57 -28 -42 -42 -54 -24 -20 7 13 7 20 1 20 -6 0 -8 6
-5 14 3 8 -20 64 -51 125 -30 62 -53 117 -49 123 4 6 3 8 -3 5 -13 -8 -26 20
-16 35 3 6 1 8 -4 5 -13 -8 -26 20 -16 35 3 6 2 8 -4 5 -5 -3 -26 28 -46 69
-39 79 -43 89 -28 79 5 -3 12 -1 16 4 3 6 -3 8 -13 6 -15 -2 -28 16 -63 87
-24 49 -47 92 -51 94 -4 3 -85 -32 -180 -77 -95 -45 -183 -86 -195 -92 -27
-12 -30 -39 -7 -58 30 -25 72 -123 67 -153 -4 -20 -2 -27 5 -22 6 4 9 14 6 24
-5 15 -4 15 5 1 6 -10 7 -29 1 -55 -13 -54 -11 -64 4 -29 7 17 11 37 9 45 -4
13 -3 13 5 0 6 -8 8 -27 5 -44 -4 -20 -3 -27 5 -22 6 4 9 14 6 24 -5 14 -4 15
5 2 5 -8 8 -25 4 -37 -3 -13 -1 -23 6 -23 6 0 8 8 5 18 -5 14 -4 15 5 2 11
-16 5 -58 -11 -75 -6 -6 -7 -4 -3 6 4 10 2 20 -4 24 -7 4 -11 -4 -11 -20 0
-24 -1 -25 -16 -11 -21 22 -23 20 -21 -11 1 -16 10 -31 20 -35 21 -9 12 -32
-9 -24 -16 6 -15 -35 1 -46 13 -10 13 -31 0 -40 -6 -5 -6 -8 3 -8 6 0 12 -9
12 -20 0 -11 -5 -20 -10 -20 -7 0 -7 -7 1 -21 11 -21 10 -22 -37 -15 -27 4
-56 7 -64 7 -33 1 -57 9 -58 21 -2 29 -9 49 -20 60 -7 7 -12 19 -12 28 -1 12
-2 12 -11 -3 -8 -13 -6 -21 5 -33 9 -8 16 -18 16 -20 0 -9 -24 -30 -43 -37 -9
-3 -22 -18 -29 -32 -6 -14 -17 -25 -25 -25 -16 0 -17 16 -3 25 8 5 7 12 -2 23
-11 13 -10 15 10 10 12 -4 20 -2 16 3 -3 5 1 9 8 9 8 0 23 6 33 14 19 14 19
15 2 34 -14 15 -15 21 -5 25 10 4 10 6 1 6 -7 1 -13 8 -13 17 0 9 5 12 13 8 6
-4 9 -4 5 1 -4 4 -3 14 2 20 8 9 4 12 -16 9 -14 -1 -29 -6 -32 -10 -4 -4 2 -4
13 0 15 5 17 4 8 -5 -9 -9 -17 -8 -34 5 -13 9 -18 16 -12 16 6 0 13 7 17 15 3
10 -8 24 -32 40 -31 21 -31 32 1 26 5 -1 6 3 2 9 -3 6 -11 8 -16 5 -5 -4 -17
-1 -26 4 -10 6 -14 11 -10 11 14 0 -14 40 -28 40 -8 0 -15 6 -15 13 0 8 -4 7
-10 -3 -8 -13 -10 -12 -10 3 0 9 -6 17 -14 17 -7 0 -19 7 -26 15 -9 11 -16 12
-25 5 -6 -5 -15 -7 -18 -3 -4 3 -7 1 -7 -7 0 -10 -3 -10 -15 0 -13 11 -20 11
-40 0 -23 -12 -25 -30 -4 -30 6 0 7 5 4 10 -3 6 0 13 8 16 9 3 35 -13 63 -39
77 -71 152 -128 156 -120 3 5 4 3 2 -3 -1 -6 20 -28 47 -49 27 -20 49 -39 49
-41 0 -10 -40 18 -113 81 -43 37 -81 65 -83 62 -3 -3 42 -44 100 -92 59 -48
106 -92 106 -96 0 -5 -27 -16 -60 -26 l-60 -16 0 -81 0 -81 -105 -58 -104 -58
-43 22 c-24 12 -73 39 -110 61 l-68 39 0 87 0 87 -55 24 c-30 13 -55 26 -55
30 0 7 288 201 328 220 26 13 45 5 81 -33 14 -14 29 -26 34 -26 13 0 -9 25
-54 61 l-38 30 -68 -42 c-103 -63 -267 -176 -287 -197 -16 -18 -14 -20 39 -48
l55 -29 1 -82 c1 -46 3 -87 4 -93 1 -5 3 -14 4 -20 0 -5 6 -10 12 -10 5 0 7 5
4 10 -8 13 5 13 25 0 13 -9 13 -10 0 -10 -13 0 -13 -2 -1 -9 8 -5 21 -7 29 -3
11 4 13 1 7 -8 -5 -9 -4 -11 3 -6 7 4 40 -9 75 -28 41 -23 74 -35 94 -33 17 1
29 6 25 11 -3 5 2 6 12 3 9 -4 15 -3 12 2 -3 4 14 18 37 30 23 12 33 15 23 7
-11 -9 -24 -16 -29 -16 -4 0 -5 -6 -1 -12 4 -7 4 -10 -1 -6 -9 9 -36 -23 -29
-34 3 -4 11 -5 19 -2 8 4 13 9 10 14 -2 4 7 5 20 2 14 -2 25 -8 25 -13 0 -5 7
-9 16 -9 8 0 12 -4 9 -10 -9 -15 54 -26 128 -22 19 1 26 6 21 14 -4 7 -3 8 4
4 6 -4 22 -1 34 6 13 7 26 13 31 14 4 1 8 2 10 4 1 1 10 3 20 5 14 3 17 -1 12
-13 -5 -13 -1 -12 16 4 20 17 22 17 16 2 -5 -13 -1 -18 12 -18 26 0 51 -10 51
-21 0 -5 -9 -9 -19 -9 -25 0 -32 -12 -20 -30 7 -12 9 -12 9 -1 0 9 8 12 25 9
14 -3 25 -1 25 4 0 6 6 8 14 5 8 -3 17 -3 20 1 4 3 15 7 26 9 36 5 118 46 116
57 -2 6 -1 8 1 4 3 -5 9 -8 14 -8 6 0 7 5 4 10 -4 6 -3 10 2 9 4 -1 11 0 16 1
4 1 11 3 17 4 5 0 51 28 101 61 61 40 125 95 192 165 56 58 87 87 70 65 -51
-66 -193 -197 -268 -247 -128 -85 -316 -167 -351 -154 -8 3 -13 2 -10 -3 4 -5
-37 -17 -90 -26 -125 -23 -362 -16 -474 13 -91 24 -187 60 -259 97 -42 21 -51
29 -40 37 10 7 9 8 -7 3 -47 -13 -293 197 -382 327 -31 45 -47 82 -19 43 11
-14 16 -15 22 -5 5 8 4 11 -2 7 -6 -4 -14 0 -17 9 -3 8 -10 13 -15 10 -5 -3
-16 5 -25 19 -19 29 -20 39 -4 29 7 -4 8 -3 4 5 -4 6 -11 9 -16 6 -4 -3 -11 2
-14 11 -9 22 -8 26 6 18 7 -4 8 -3 4 5 -4 6 -11 9 -16 6 -21 -13 -100 213
-124 354 -17 99 -21 301 -7 384 l8 47 -112 0 -111 0 7 -52 c31 -218 -17 -520
-115 -718 -112 -227 -327 -443 -550 -553 -110 -54 -266 -105 -349 -114 -54 -6
-60 -4 -54 11 4 9 43 134 87 279 44 144 84 272 89 284 14 31 4 34 -51 12 -45
-18 -51 -18 -80 -3 -40 21 -128 29 -166 16 -27 -9 -32 -7 -50 18 -23 31 -113
70 -161 70 -23 0 -31 8 -51 50 -13 28 -26 50 -29 50 -3 0 -39 -82 -80 -183
-41 -100 -93 -229 -117 -286 l-43 -103 27 5 c15 3 66 -9 126 -30 126 -44 153
-58 161 -83 7 -23 14 -24 38 -6 21 16 32 14 155 -27 71 -23 98 -37 113 -59
l20 -28 -73 0 c-93 0 -251 23 -348 50 -92 26 -234 92 -330 154 -149 97 -323
293 -405 456 -115 230 -158 527 -109 758 l7 32 -1342 0 -1341 0 0 -1310z
m7192 739 c135 -273 155 -321 140 -326 -9 -4 -79 -40 -155 -81 -76 -40 -141
-72 -143 -69 -6 5 82 55 203 116 67 33 81 44 76 58 -4 10 -72 145 -151 301
-93 182 -149 282 -159 282 -8 0 -74 -27 -146 -61 -73 -33 -138 -63 -144 -66
-7 -3 -13 0 -13 6 0 6 24 23 53 37 88 45 261 124 272 123 6 0 81 -144 167
-320z m-39 -20 c81 -160 147 -292 145 -294 -28 -21 -283 -143 -290 -139 -5 4
-8 15 -5 25 3 10 1 17 -4 16 -10 -2 -47 64 -175 317 -75 148 -93 191 -82 198
10 7 9 8 -4 4 -10 -3 -18 -4 -18 -2 0 3 -3 11 -6 20 -4 10 2 19 17 25 13 5 78
34 144 65 66 30 122 55 125 55 3 0 72 -130 153 -290z m-302 -156 c82 -160 146
-294 142 -296 -5 -3 -77 130 -162 295 -85 165 -148 299 -142 297 7 -3 79 -136
162 -296z m-5151 72 c-24 -73 -29 -98 -21 -114 17 -30 12 -39 -5 -11 -14 24
-15 24 -11 2 3 -12 1 -20 -4 -16 -12 7 -12 -13 0 -35 12 -22 2 -69 -10 -49
-12 18 -11 31 1 23 12 -8 13 5 1 23 -11 18 -24 -28 -15 -55 5 -15 4 -16 -6 -3
-10 13 -11 12 -7 -5 3 -11 8 -29 12 -40 4 -14 2 -13 -10 5 -13 20 -15 21 -12
5 3 -11 8 -29 12 -40 4 -14 2 -13 -10 5 -13 20 -15 21 -12 5 3 -11 8 -29 12
-40 5 -15 3 -14 -8 4 -14 23 -14 22 -27 -23 -7 -26 -17 -49 -23 -53 -7 -4 -8
1 -3 13 4 10 44 132 89 270 45 139 83 245 85 238 2 -8 -11 -57 -28 -109z m41
28 c-12 -20 -14 -14 -5 12 4 9 9 14 11 11 3 -2 0 -13 -6 -23z m149 6 c19 -5
50 -18 69 -30 l34 -20 -6 -62 c-4 -34 -25 -125 -47 -202 -42 -145 -52 -200
-20 -105 17 49 69 243 84 312 13 59 168 65 237 9 l23 -18 -63 -229 c-34 -126
-64 -230 -66 -232 -2 -2 -26 12 -54 32 -51 35 -121 54 -161 43 -14 -4 -20 0
-20 11 -1 15 -2 15 -11 -1 -10 -16 -14 -15 -49 17 -38 34 -55 39 -177 49 l-32
2 66 205 c36 113 69 213 74 223 10 18 35 18 119 -4z m-179 -100 c-21 -57 -29
-56 -10 2 6 19 13 40 15 48 3 8 7 12 9 9 3 -2 -4 -29 -14 -59z m1739 -194
c-55 -137 -105 -254 -111 -259 -6 -6 -3 7 6 29 26 63 172 427 185 459 6 16 13
27 15 24 3 -2 -40 -116 -95 -253z m1705 168 c103 -243 299 -478 524 -628 270
-180 611 -257 926 -210 87 13 172 33 218 50 7 3 -14 -50 -46 -117 -105 -220
-251 -548 -243 -548 1 0 38 43 81 95 43 52 81 93 83 90 2 -2 -17 -53 -43 -114
l-48 -110 -56 -6 c-224 -26 -409 -114 -562 -265 -146 -146 -169 -190 -459
-915 -84 -209 -216 -535 -293 -725 -76 -190 -144 -356 -149 -370 -8 -18 -12
-21 -15 -10 -19 57 -493 1232 -524 1298 -21 46 -58 113 -83 150 -47 71 -150
176 -203 207 -20 12 -50 50 -83 105 -52 88 -137 192 -203 250 l-38 33 38 21
c70 39 106 164 101 353 -2 62 -1 113 2 113 3 0 18 -25 35 -57 65 -125 205
-318 219 -302 4 5 -28 115 -141 479 -47 151 -86 281 -87 289 -1 9 23 20 67 32
394 110 733 402 907 783 25 53 45 96 46 96 0 0 14 -30 29 -67z m-2826 25 c-5
-18 -39 -148 -75 -288 -60 -233 -84 -313 -72 -235 8 45 127 506 138 533 14 33
20 27 9 -10z m1169 -136 c-33 -89 -63 -161 -65 -159 -2 2 24 77 58 166 34 89
63 160 65 158 2 -2 -24 -76 -58 -165z m3325 113 c4 -8 3 -16 -1 -19 -4 -3 -9
4 -9 15 -2 23 3 25 10 4z m-4588 -225 c-31 -123 -61 -232 -65 -244 -18 -45
-10 15 14 102 13 48 41 151 62 229 20 79 39 141 41 139 2 -2 -21 -104 -52
-226z m1482 203 c20 -10 45 -29 55 -43 18 -25 18 -27 -7 -99 -34 -101 -31
-115 4 -18 16 43 34 84 40 90 19 19 140 14 181 -7 19 -10 38 -23 41 -29 4 -5
-4 -46 -18 -91 -36 -118 -115 -360 -119 -365 -2 -2 -22 13 -44 32 -45 38 -123
63 -165 53 -29 -8 -29 -10 -10 44 8 24 13 45 11 47 -2 2 -12 -19 -21 -47 l-17
-51 -38 35 c-29 26 -51 36 -87 41 -80 10 -113 16 -113 19 0 2 18 48 39 102 21
55 58 148 81 208 l43 109 54 -6 c29 -3 70 -14 90 -24z m3144 -52 c1 -9 0 -26
-1 -38 -1 -13 3 -23 9 -23 6 0 8 7 5 15 -4 8 -3 15 1 15 3 0 31 -52 61 -115
31 -64 62 -115 70 -115 7 0 23 10 35 23 l23 22 -16 -25 c-17 -28 -85 -47 -85
-24 0 7 5 10 10 7 6 -3 7 -1 3 5 -4 6 -13 9 -21 5 -8 -3 -15 0 -15 7 0 6 -4 8
-10 5 -6 -4 -10 5 -10 21 0 23 2 25 15 14 24 -20 25 -9 5 30 -11 19 -19 30
-20 24 0 -7 -10 -11 -22 -10 -19 1 -23 7 -24 34 l-1 33 16 -25 c9 -14 19 -26
23 -26 12 0 10 6 -12 47 -11 21 -20 32 -20 24 0 -11 -3 -11 -16 -1 -8 7 -14
23 -13 34 3 39 -1 57 -10 52 -5 -3 -7 -16 -4 -29 6 -21 5 -20 -16 5 -23 28
-27 48 -11 48 6 0 10 -4 10 -10 0 -5 4 -10 10 -10 5 0 7 8 4 18 -5 14 -3 14
10 -2 9 -11 16 -27 17 -35z m-399 15 c5 4 8 -1 6 -10 -5 -26 -21 -24 -24 4 -1
14 0 19 2 12 3 -6 10 -9 16 -6z m-2416 -252 c-36 -115 -74 -238 -85 -274 -11
-36 -20 -58 -20 -49 -2 30 157 544 165 536 3 -3 -24 -98 -60 -213z m3264 141
c-7 -8 -17 -15 -23 -15 -6 0 -2 7 9 15 25 19 30 19 14 0z m-36 -23 c2 -4 -5
-9 -17 -9 -17 -2 -19 0 -7 7 18 12 18 12 24 2z m-3247 -84 c-3 -8 -6 -5 -6 6
-1 11 2 17 5 13 3 -3 4 -12 1 -19z m2418 -54 c-6 -72 -24 -122 -38 -107 -4 3
-7 0 -7 -7 0 -7 -3 -10 -6 -7 -4 3 -15 2 -25 -4 -11 -5 -19 -7 -19 -5 0 3 18
15 40 26 l40 20 0 80 c0 49 4 80 10 80 7 0 9 -26 5 -76z m-5335 52 c-77 -70
-450 -385 -450 -378 0 4 73 71 163 149 237 206 281 243 292 243 5 0 3 -6 -5
-14z m480 -23 c-11 -17 -11 -17 -6 0 3 10 6 24 7 30 0 9 2 9 5 0 3 -7 0 -20
-6 -30z m4967 6 c-3 -11 -1 -19 5 -19 5 0 6 -5 2 -11 -4 -7 -10 -7 -16 -1 -6
6 -17 8 -24 5 -11 -4 -10 2 2 26 16 33 39 32 31 0z m-5236 -171 c28 -32 46
-58 41 -58 -14 0 -222 230 -222 244 1 11 73 -64 181 -186z m2100 155 c-12 -20
-14 -14 -5 12 4 9 9 14 11 11 3 -2 0 -13 -6 -23z m-2314 -1 c-13 -15 -14 -21
-4 -32 10 -12 9 -12 -5 -1 -10 7 -18 11 -18 7 0 -3 0 -9 0 -13 0 -4 7 -8 17
-9 10 -2 19 -7 21 -13 2 -5 18 -29 37 -52 19 -24 31 -47 28 -53 -3 -5 -2 -6 4
-3 5 3 27 -13 49 -35 21 -23 32 -37 24 -31 -9 7 -20 9 -26 5 -14 -9 -25 -52
-13 -52 4 0 6 -7 3 -15 -9 -23 1 -18 40 18 l35 34 -89 99 c-49 54 -87 100 -86
101 2 2 48 -43 103 -99 l101 -101 -32 -26 c-35 -29 -232 -197 -319 -273 -47
-41 -60 -48 -72 -38 -16 13 -10 34 6 24 5 -3 7 -10 4 -15 -15 -23 14 -5 49 30
27 28 34 41 25 46 -8 5 -10 4 -5 -3 10 -16 -7 -15 -23 1 -11 10 -13 10 -7 0 4
-7 3 -13 -2 -13 -5 0 -12 -10 -16 -22 -6 -22 -6 -22 -25 7 -10 17 -46 57 -80
90 -33 33 -61 64 -61 70 0 5 22 -14 50 -43 27 -29 55 -51 62 -50 7 2 14 -7 16
-20 2 -13 8 -20 14 -16 7 5 8 2 3 -6 -5 -8 -4 -11 3 -6 6 4 8 14 5 23 -5 12
-3 14 8 8 8 -5 6 1 -4 13 -18 20 -18 22 -1 51 16 28 16 31 0 55 -12 19 -13 26
-4 26 9 0 8 3 -2 10 -13 8 -12 10 3 10 9 0 17 5 17 11 0 6 -6 9 -14 6 -9 -4
-12 2 -10 19 1 15 -3 24 -12 24 -10 0 -11 6 -4 24 8 22 6 24 -12 21 -36 -7
-121 -82 -111 -99 3 -6 2 -8 -2 -3 -5 4 -19 0 -32 -8 -44 -29 -23 -5 54 60 42
36 82 64 89 61 7 -3 20 4 29 14 10 11 21 17 25 15 4 -3 7 4 6 15 -1 13 28 46
83 95 80 72 113 96 78 57z m2873 -123 c-41 -140 -58 -192 -59 -173 -1 13 40
158 70 252 37 112 30 60 -11 -79z m-2737 6 c60 -63 105 -115 100 -115 -8 0
-69 61 -183 183 -24 26 -40 47 -35 47 6 0 59 -52 118 -115z m474 99 c-3 -3
-12 -4 -19 -1 -8 3 -5 6 6 6 11 1 17 -2 13 -5z m124 -41 c13 -16 12 -17 -3 -4
-17 13 -22 21 -14 21 2 0 10 -8 17 -17z m162 -30 c-7 -2 -19 -2 -25 0 -7 3 -2
5 12 5 14 0 19 -2 13 -5z m4567 -58 c7 -9 10 -18 6 -22 -3 -3 -6 -1 -6 5 0 7
-5 11 -11 10 -6 -2 -14 3 -16 10 -6 17 12 15 27 -3z m-5645 -14 c-3 -6 -11
-11 -17 -11 -6 0 -6 6 2 15 14 17 26 13 15 -4z m5659 -47 c3 -8 2 -12 -4 -9
-6 3 -10 10 -10 16 0 14 7 11 14 -7z m-5229 -53 c-18 -17 -333 -288 -413 -355
-19 -17 -33 -24 -31 -17 6 16 440 390 454 391 5 0 1 -8 -10 -19z m-649 -80
c-4 -5 -3 -11 1 -13 5 -1 33 -30 63 -63 l54 -60 -66 64 c-57 55 -74 81 -52 81
3 0 3 -4 0 -9z m52 -98 c39 -43 68 -80 65 -83 -2 -3 -20 13 -40 35 -19 22 -53
59 -76 83 -22 23 -35 42 -30 42 6 0 43 -35 81 -77z m-32 -10 c108 -123 157
-183 152 -189 -5 -5 -204 214 -222 244 -20 34 16 5 70 -55z m1620 -63 c170
-429 233 -594 229 -599 -11 -10 -225 -89 -225 -82 0 3 45 24 100 45 55 21 100
43 100 50 0 15 -237 598 -247 607 -5 4 -78 -15 -163 -41 -139 -43 -175 -51
-158 -35 10 11 313 114 327 112 8 -1 25 -27 37 -57z m-1486 -5 c19 -19 32 -35
29 -35 -3 0 -20 16 -39 35 -19 19 -32 35 -29 35 3 0 20 -16 39 -35z m1554
-281 c72 -178 115 -299 110 -304 -5 -5 -34 -18 -64 -29 -30 -11 -92 -33 -138
-50 l-82 -31 -26 58 c-45 101 -66 161 -58 173 4 7 3 9 -3 6 -6 -4 -30 42 -56
106 -25 62 -62 149 -81 193 l-34 81 121 37 c67 21 133 41 147 46 14 5 30 9 35
9 6 0 63 -132 129 -295z m-1512 182 c-6 -10 -42 30 -42 47 0 7 11 0 24 -13 13
-14 21 -29 18 -34z m1197 -293 c113 -273 134 -331 112 -307 -14 14 -251 588
-251 607 0 30 29 -32 139 -300z m-984 46 c-24 -45 -26 -56 -15 -73 12 -19 12
-20 -3 -7 -14 11 -18 11 -23 -3 -3 -9 0 -24 7 -34 12 -15 12 -16 -2 -4 -14 10
-18 10 -23 -4 -4 -10 -2 -22 4 -28 5 -5 10 -14 10 -20 0 -5 -7 -1 -16 10 -14
17 -15 17 -10 1 3 -11 2 -16 -4 -12 -13 8 -13 -1 1 -27 9 -16 8 -19 -2 -13 -9
6 -11 3 -6 -9 5 -11 3 -15 -5 -10 -8 5 -9 2 -5 -10 5 -11 3 -15 -5 -10 -8 5
-9 2 -5 -10 4 -10 3 -15 -3 -11 -6 3 -11 0 -12 -7 0 -7 -2 -17 -2 -23 -1 -5
-8 -25 -15 -43 -12 -28 -15 -30 -25 -17 -10 14 -15 9 -34 -31 -13 -25 -24 -45
-26 -43 -5 5 237 500 242 495 2 -2 -9 -28 -23 -57z m32 9 c-3 -8 -6 -5 -6 6
-1 11 2 17 5 13 3 -3 4 -12 1 -19z m138 -45 c51 -18 95 -60 95 -91 0 -13 -18
-67 -40 -119 -22 -53 -39 -98 -37 -100 2 -2 23 42 47 97 45 108 66 130 117
130 43 0 136 -35 158 -60 18 -19 16 -25 -55 -197 -40 -98 -82 -198 -93 -222
l-19 -43 -36 35 c-44 42 -114 76 -159 77 l-32 0 15 36 c8 20 13 38 11 41 -3 2
-10 -12 -17 -31 -15 -48 -27 -53 -51 -22 -29 37 -66 54 -147 67 l-69 11 94
201 c51 111 99 205 105 208 14 9 56 2 113 -18z m382 -269 c-30 -71 -81 -191
-112 -267 -32 -75 -60 -135 -62 -133 -3 2 18 58 45 123 28 65 78 185 112 266
34 81 64 146 67 144 2 -3 -21 -63 -50 -133z m2058 -132 c-2 -2 -28 4 -58 14
-55 17 -55 18 -83 86 -15 38 -31 71 -36 74 -4 3 -8 11 -8 17 1 7 43 -33 95
-88 52 -54 92 -101 90 -103z m-2130 32 c-26 -60 -60 -144 -78 -186 -17 -43
-34 -78 -39 -78 -4 0 -1 15 6 33 8 17 33 77 56 132 72 176 95 226 98 217 1 -5
-18 -58 -43 -118z m701 51 c-11 -8 -27 -15 -35 -15 -10 1 -7 6 9 15 33 19 50
18 26 0z m-1355 -52 c-12 -20 -14 -14 -5 12 4 9 9 14 11 11 3 -2 0 -13 -6 -23z
m5934 -32 c330 -68 575 -299 655 -616 14 -55 41 -315 89 -845 39 -421 113
-1237 166 -1815 105 -1150 104 -1132 54 -1286 -96 -295 -359 -489 -664 -489
-192 0 -321 54 -460 194 -156 157 -203 281 -229 612 -38 464 -67 847 -98 1288
-24 352 -36 473 -47 483 -7 8 -25 13 -39 11 -21 -2 -30 -13 -44 -48 -10 -25
-97 -250 -194 -500 -97 -250 -218 -563 -271 -695 -52 -132 -128 -328 -169
-435 -107 -282 -133 -330 -228 -426 -66 -66 -97 -89 -166 -121 -108 -52 -163
-65 -275 -64 -94 0 -226 32 -270 65 -11 9 10 4 48 -11 54 -21 70 -24 80 -14 9
10 9 12 -2 9 -9 -2 -15 8 -17 30 -1 17 2 32 7 32 5 0 9 5 9 11 0 5 -5 7 -11 3
-6 -3 -15 0 -20 7 -11 17 -12 42 -1 36 4 -3 6 18 4 46 -1 29 -3 59 -3 67 0 20
11 81 18 100 12 30 14 46 18 120 8 168 19 525 20 675 2 88 3 234 5 325 2 176
7 233 20 225 11 -7 11 -10 16 240 3 118 9 211 15 213 5 2 9 27 9 55 1 48 2 50
15 33 26 -34 17 -2 -35 125 -27 67 -48 124 -46 126 5 5 111 -251 110 -265 -1
-7 0 -11 3 -8 3 3 14 1 25 -5 29 -16 65 -3 84 31 10 16 22 26 27 23 6 -3 7 -1
3 5 -8 13 -10 8 646 1622 77 190 150 363 161 385 117 233 337 396 606 450 99
20 270 18 376 -4z m-3297 -60 c146 -43 328 -153 404 -245 l27 -33 -80 39
c-124 61 -246 88 -399 88 -140 0 -227 -17 -348 -68 -249 -104 -444 -346 -512
-634 -10 -46 -35 -222 -54 -393 -75 -651 -129 -1112 -206 -1735 -43 -355 -91
-742 -104 -860 -14 -118 -37 -313 -51 -433 -14 -120 -28 -255 -31 -300 -7
-106 -10 -116 -29 -91 -25 33 -76 174 -91 252 -21 112 -17 207 21 510 60 477
163 1324 200 1647 138 1207 187 1608 206 1675 79 296 320 529 613 596 93 21
339 13 434 -15z m4153 -185 c275 -267 607 -397 979 -383 175 7 302 35 467 101
l132 53 -55 -61 c-150 -165 -264 -397 -315 -639 -28 -131 -30 -355 -5 -501 75
-439 381 -832 793 -1016 l82 -37 -53 -22 c-86 -35 -229 -121 -315 -189 -266
-210 -443 -498 -511 -833 -42 -202 -26 -466 41 -676 32 -103 109 -266 160
-340 17 -23 25 -43 18 -43 -16 0 -211 108 -579 319 -173 100 -320 184 -326
189 -7 4 -20 113 -33 277 -12 149 -29 320 -36 380 -8 61 -17 164 -20 230 -3
66 -10 145 -15 175 -5 30 -14 109 -20 175 -13 159 -93 1065 -130 1480 -16 182
-32 362 -35 400 -14 160 -37 312 -61 385 -42 133 -154 279 -272 354 -28 17
-50 43 -68 78 -15 29 -37 70 -50 90 l-24 38 37 34 c70 62 98 85 103 86 3 0 53
-47 111 -104z m-6451 -536 c199 -109 795 -427 905 -483 166 -85 150 -49 126
-288 -12 -112 -35 -314 -51 -449 -16 -135 -55 -459 -85 -720 -63 -535 -147
-1226 -171 -1403 -20 -140 -15 -340 10 -431 22 -80 84 -209 137 -287 24 -35
82 -104 129 -154 47 -49 72 -81 56 -71 -163 103 -313 165 -490 204 -61 13
-127 17 -266 17 -167 0 -195 -3 -291 -27 -104 -26 -224 -70 -300 -108 -21 -11
-39 -18 -39 -16 0 3 23 31 50 63 66 74 127 167 180 273 203 404 206 842 10
1242 -68 138 -140 238 -255 354 -130 131 -241 212 -390 285 -66 32 -114 59
-106 59 7 0 55 20 106 44 283 134 523 374 659 660 91 189 130 365 129 581 0
226 -41 400 -141 605 -31 63 -58 119 -61 123 -4 10 5 6 149 -73z m3420 -1125
c0 -5 -5 -3 -10 5 -5 8 -10 20 -10 25 0 6 5 3 10 -5 5 -8 10 -19 10 -25z m30
-70 c0 -5 -5 -3 -10 5 -5 8 -10 20 -10 25 0 6 5 3 10 -5 5 -8 10 -19 10 -25z
m50 -120 c0 -5 -5 -3 -10 5 -5 8 -10 20 -10 25 0 6 5 3 10 -5 5 -8 10 -19 10
-25z m47 -122 c-3 -2 -12 15 -22 39 -28 69 -27 78 0 19 14 -29 24 -55 22 -58z
m-897 -1233 c0 -21 384 -979 412 -1027 47 -83 113 -167 164 -206 29 -23 63
-65 92 -114 68 -117 194 -238 302 -291 152 -74 290 -95 448 -68 165 29 289 94
404 214 78 80 110 130 147 225 16 40 118 296 227 571 193 485 199 497 206 455
4 -24 18 -183 33 -354 14 -170 30 -344 36 -385 33 -224 153 -447 303 -560 52
-39 54 -44 86 -143 18 -56 56 -164 86 -240 30 -77 54 -140 54 -141 0 -1 -46
43 -102 98 -185 180 -316 259 -398 241 -43 -10 -52 -33 -31 -81 23 -50 252
-466 413 -749 122 -215 168 -299 168 -309 0 -3 -24 6 -52 18 -95 42 -241 84
-353 101 -134 21 -325 15 -457 -14 -321 -72 -641 -291 -822 -564 -56 -84 -165
-299 -166 -327 -1 -8 -11 10 -24 40 -13 30 -43 96 -69 145 -185 366 -545 638
-941 712 -137 25 -371 23 -505 -6 -234 -50 -442 -157 -633 -325 -49 -43 -88
-76 -88 -74 0 2 12 48 26 103 32 123 44 354 25 486 -30 208 -101 396 -215 568
l-72 110 40 -24 c23 -13 84 -39 136 -57 89 -30 103 -32 235 -33 166 0 226 13
365 81 81 40 108 60 185 138 100 101 145 170 186 286 38 107 42 142 90 872 24
356 47 644 51 642 4 -3 8 -9 8 -14z m730 -1217 c0 -7 -61 31 -73 46 -7 8 7 2
31 -14 23 -15 42 -30 42 -32z m4048 -360 c-32 -2 -84 -2 -115 0 -32 2 -6 3 57
3 63 0 89 -1 58 -3z m-273 -23 c-49 -11 -91 -17 -93 -15 -6 5 120 33 153 33
17 1 -10 -8 -60 -18z m393 13 c-10 -2 -28 -2 -40 0 -13 2 -5 4 17 4 22 1 32
-1 23 -4z m55 -10 c-7 -2 -19 -2 -25 0 -7 3 -2 5 12 5 14 0 19 -2 13 -5z m72
-13 c25 -11 -1 -11 -35 0 -20 6 -21 8 -5 8 11 0 29 -3 40 -8z m-705 -45 c-47
-19 -87 -35 -90 -35 -22 1 137 69 160 70 8 0 -23 -16 -70 -35z m785 20 c39
-17 21 -18 -25 0 -19 7 -28 14 -20 14 8 0 29 -6 45 -14z m145 -60 c28 -14 50
-28 50 -30 0 -5 -99 42 -109 51 -12 11 15 1 59 -21z m-1030 0 c0 -2 -22 -16
-48 -29 -124 -63 -287 -210 -386 -350 -26 -36 -50 -66 -53 -66 -13 0 93 136
167 214 87 90 169 155 262 207 57 31 58 31 58 24z m523 -114 c24 -36 28 -38
91 -43 43 -4 77 -13 102 -29 29 -18 55 -24 118 -26 45 -2 102 -10 128 -19 44
-14 49 -14 88 6 68 35 79 19 53 -74 -4 -14 -2 -16 8 -11 8 5 7 0 -3 -11 -9
-10 -18 -32 -20 -49 -2 -16 -6 -32 -9 -35 -9 -8 -71 -278 -72 -315 -1 -19 -4
-32 -8 -29 -4 2 -11 -16 -14 -40 -8 -51 -25 -63 -51 -35 -10 11 -37 25 -61 31
-24 6 -42 13 -39 15 9 9 80 -17 102 -38 28 -26 24 -35 59 126 14 66 46 198 71
294 25 95 42 176 39 180 -4 3 -28 -6 -54 -20 -44 -25 -49 -26 -75 -12 -38 20
-136 28 -175 15 -27 -10 -34 -8 -60 17 -32 30 -96 51 -158 51 -33 1 -42 6 -66
41 -31 45 -42 44 -52 -4 -4 -17 -20 -77 -35 -132 -16 -55 -45 -161 -64 -236
-20 -75 -39 -144 -42 -153 -6 -15 -2 -17 27 -12 21 4 62 -2 104 -14 42 -12 54
-17 30 -14 -22 3 -53 8 -70 10 -25 4 -26 3 -10 -5 16 -8 12 -9 -20 -8 -34 2
-40 -1 -38 -18 1 -18 -1 -18 -19 5 -19 23 -21 23 -16 4 4 -17 2 -20 -13 -17
-14 4 -19 0 -19 -13 0 -11 -6 -31 -14 -46 -10 -18 -11 -28 -3 -31 6 -2 8 -11
4 -21 -9 -22 -27 -11 -28 17 -1 20 -2 20 -9 -3 -12 -37 -12 -92 0 -85 6 4 10
-10 10 -36 0 -23 -2 -40 -4 -38 -3 2 -30 74 -60 159 -101 285 -134 365 -148
365 -7 0 -21 -16 -30 -35 -15 -30 -25 -36 -73 -47 -30 -7 -70 -20 -88 -28 -27
-14 -29 -14 -12 -1 11 9 25 19 30 23 6 4 21 10 35 12 14 1 33 7 43 12 9 6 23
7 30 3 6 -4 9 -4 5 0 -3 4 0 15 8 24 8 10 23 28 33 42 16 21 21 22 35 11 9 -7
16 -22 16 -32 0 -11 5 -19 11 -19 5 0 7 -5 3 -12 -5 -7 -3 -8 7 -2 8 4 21 9
29 11 8 1 20 10 27 19 12 16 13 17 13 1 0 -9 5 -17 11 -17 6 0 8 -9 4 -21 -5
-15 -4 -19 4 -15 6 4 16 -4 22 -18 7 -14 16 -23 20 -20 5 3 9 0 9 -6 0 -6 7
-18 15 -26 13 -14 15 -13 16 8 1 23 1 23 8 -2 4 -14 4 -26 -1 -28 -4 -2 -8
-11 -8 -20 0 -14 2 -14 9 -3 7 11 10 11 15 0 3 -8 4 3 2 23 -3 26 0 35 9 32 7
-3 16 0 20 5 3 6 11 9 16 6 10 -7 28 33 28 62 0 24 5 45 14 61 5 6 6 16 3 21
-4 5 -2 11 3 13 5 1 28 73 51 158 54 199 60 207 103 141z m-29 -35 c-3 -13 -1
-35 6 -48 11 -22 11 -23 -6 -3 -16 20 -16 20 -10 -5 4 -14 8 -30 8 -37 2 -17
-75 -294 -80 -289 -2 3 6 38 17 79 26 94 54 228 48 233 -2 2 -27 -85 -57 -194
-29 -108 -57 -204 -62 -212 -7 -12 -8 -10 -4 5 12 51 121 451 131 483 8 22 15
12 9 -12z m208 -57 c47 -24 61 -50 54 -102 l-6 -42 14 44 c8 24 21 48 28 52
41 27 218 -4 218 -37 0 -12 -64 -278 -101 -416 l-10 -38 -49 34 c-57 39 -97
51 -146 41 -34 -6 -34 -5 -29 22 l5 28 -11 -27 c-10 -27 -29 -38 -29 -18 0 23
-79 50 -150 50 -63 0 -71 2 -66 18 3 9 28 104 57 211 43 157 57 195 73 202 29
11 103 0 148 -22z m366 -106 c-31 -110 -108 -441 -108 -463 0 -11 -5 -20 -11
-20 -6 0 -8 8 -5 18 3 9 7 28 10 42 19 96 120 490 126 490 4 0 -1 -30 -12 -67z
m-15 37 c-3 -12 -8 -19 -11 -16 -5 6 5 36 12 36 2 0 2 -9 -1 -20z m-36 -132
c-3 -8 -6 -5 -6 6 -1 11 2 17 5 13 3 -3 4 -12 1 -19z m-20 -70 c-3 -8 -6 -5
-6 6 -1 11 2 17 5 13 3 -3 4 -12 1 -19z m-1524 -53 c-15 -30 -29 -53 -31 -51
-4 5 46 106 53 106 3 0 -7 -25 -22 -55z m652 -196 c50 -138 92 -256 94 -263 2
-7 0 -8 -7 -1 -5 6 -42 101 -81 213 -39 111 -80 225 -91 252 -11 28 -16 50
-12 50 4 0 48 -113 97 -251z m-116 153 c26 -64 141 -386 141 -394 0 -4 -27 -8
-60 -8 -66 0 -114 -18 -142 -54 l-17 -21 -12 33 c-6 18 -13 31 -15 29 -3 -2 0
-16 5 -30 l10 -25 -59 1 c-61 0 -89 -12 -142 -61 -22 -20 -29 -22 -33 -11 -3
9 -34 102 -70 209 -71 214 -71 217 -6 250 65 33 117 37 152 11 27 -20 29 -20
29 -4 0 45 59 87 143 102 53 9 63 6 76 -27z m966 -12 c-9 -41 -17 -33 -9 9 4
17 9 30 11 27 3 -2 2 -19 -2 -36z m-901 -80 c3 -14 -2 -7 -13 15 -10 22 -21
51 -24 65 -4 14 2 7 12 -15 10 -22 22 -51 25 -65z m-290 56 c-4 -11 -19 -13
-64 -9 -51 5 -64 2 -116 -26 l-58 -31 -41 20 c-55 27 -58 26 -52 -17 l6 -38
-11 33 c-17 50 0 60 56 33 l45 -22 42 28 c36 23 54 28 111 29 38 1 71 4 75 8
10 10 13 7 7 -8z m1165 -85 c-6 -34 -14 -59 -17 -57 -3 3 1 33 8 66 7 33 15
59 17 56 2 -2 -1 -32 -8 -65z m-396 52 c-7 -2 -21 -2 -30 0 -10 3 -4 5 12 5
17 0 24 -2 18 -5z m53 -19 c18 -14 18 -14 -6 -3 -31 14 -36 19 -24 19 6 0 19
-7 30 -16z m-1051 -222 c75 -231 98 -309 86 -296 -5 5 -43 119 -86 254 -43
135 -80 249 -83 254 -3 5 0 6 6 2 5 -3 40 -99 77 -214z m1198 191 c-13 -2 -33
-2 -45 0 -13 2 -3 4 22 4 25 0 35 -2 23 -4z m-178 -13 c13 -5 14 -9 5 -9 -8 0
-24 4 -35 9 -13 5 -14 9 -5 9 8 0 24 -4 35 -9z m245 -5 c14 -8 21 -14 15 -14
-5 0 -21 6 -35 14 -14 8 -20 14 -15 14 6 0 21 -6 35 -14z m-1264 -77 c15 -46
29 -90 32 -98 3 -8 2 -13 -1 -9 -7 5 -67 169 -67 182 0 22 11 -2 36 -75z m-76
37 c0 -5 -5 -3 -10 5 -5 8 -10 20 -10 25 0 6 5 3 10 -5 5 -8 10 -19 10 -25z
m1150 8 c0 -12 7 -14 30 -10 28 6 29 6 12 -12 -15 -15 -19 -16 -34 -4 -17 15
-33 57 -17 47 5 -3 9 -12 9 -21z m-505 -56 c14 -37 25 -73 25 -80 -1 -11 -60
140 -60 152 0 13 12 -12 35 -72z m645 43 c20 -6 21 -8 5 -8 -11 0 -31 4 -45 8
-20 6 -21 8 -5 8 11 0 31 -4 45 -8z m-1266 -75 c4 -19 3 -25 -3 -15 -4 8 -11
29 -15 45 -4 19 -3 25 3 15 4 -8 11 -28 15 -45z m-137 -17 c-3 -8 -6 -5 -6 6
-1 11 2 17 5 13 3 -3 4 -12 1 -19z m253 -348 c-1 -8 -26 59 -55 149 -30 91
-55 170 -54 175 1 16 109 -306 109 -324z m-263 278 c-3 -7 -5 -2 -5 12 0 14 2
19 5 13 2 -7 2 -19 0 -25z m1868 3 c41 -60 240 -276 256 -279 10 -2 23 -10 30
-18 11 -13 7 -20 -19 -45 -17 -16 -38 -29 -47 -29 -9 0 -13 -4 -10 -10 3 -5
-1 -10 -10 -10 -9 0 -13 -4 -10 -10 3 -5 1 -10 -5 -10 -6 0 -26 -16 -46 -35
-19 -19 -32 -35 -28 -35 4 0 -6 -11 -21 -24 -16 -14 -32 -23 -36 -20 -4 2 -20
-11 -34 -30 -15 -20 -30 -34 -35 -33 -13 4 -71 -44 -65 -54 4 -5 -2 -9 -12 -9
-10 0 -42 -23 -71 -51 -30 -28 -56 -49 -58 -46 -3 3 61 63 143 133 81 71 177
155 213 187 36 33 84 70 108 84 45 26 50 44 15 53 -19 5 -187 181 -246 258
-16 20 -33 39 -38 40 -5 2 -31 -19 -57 -46 -40 -43 -184 -172 -377 -340 -28
-24 -62 -51 -77 -60 -34 -20 -35 -30 -5 -41 21 -9 179 -174 246 -258 30 -37
36 -41 55 -31 20 10 20 10 4 -8 -16 -16 -20 -16 -32 -4 -7 8 -60 67 -116 130
-57 63 -107 114 -112 112 -5 -1 -7 2 -4 7 10 15 -24 35 -56 33 -26 -2 -29 0
-23 20 4 13 18 32 32 43 109 85 406 347 467 413 27 28 52 52 55 52 3 0 15 -13
26 -29z m-1046 -51 c0 -10 -3 -8 -9 5 -12 27 -12 43 0 25 5 -8 9 -22 9 -30z
m959 -37 c-24 -22 -61 -55 -83 -74 -22 -19 -102 -90 -178 -158 -76 -68 -140
-122 -142 -119 -3 2 50 54 118 115 210 188 320 283 324 279 3 -2 -15 -22 -39
-43z m194 -88 c22 -27 49 -56 59 -63 11 -7 19 -20 19 -28 0 -8 4 -13 9 -10 5
3 12 -1 15 -10 3 -9 2 -14 -3 -12 -19 6 -221 234 -221 248 1 15 44 -30 122
-125z m-1985 -28 c-2 -23 -3 -1 -3 48 0 50 1 68 3 42 2 -26 2 -67 0 -90z m902
107 c-6 -8 -26 -14 -43 -13 -17 2 -42 -1 -56 -4 -20 -5 -19 -4 5 7 17 8 42 12
58 9 21 -4 27 -2 27 11 0 10 5 14 10 11 8 -5 7 -11 -1 -21z m1059 -98 l109
-119 -52 -46 c-77 -69 -318 -278 -348 -301 l-25 -20 -23 31 c-22 31 -22 31 -1
20 44 -23 44 -4 0 42 -18 19 -59 62 -90 96 -32 33 -63 61 -68 61 -6 0 3 -15
19 -32 17 -18 31 -38 31 -45 0 -6 8 -18 18 -25 9 -7 23 -22 31 -33 8 -11 -19
13 -59 53 -40 40 -75 70 -78 68 -4 -4 98 -121 190 -218 14 -15 23 -30 19 -32
-9 -6 -177 175 -174 186 2 4 -11 17 -28 29 l-31 21 69 63 c154 141 368 325
375 322 4 -1 56 -56 116 -121z m-1198 64 c-8 -5 -22 -9 -30 -9 -10 0 -8 3 5 9
27 12 43 12 25 0z m-245 -19 c-22 -4 -51 -10 -65 -14 -20 -5 -19 -4 5 8 17 8
46 14 65 13 l35 -1 -40 -6z m185 -1 c-8 -5 -22 -9 -30 -9 -10 0 -8 3 5 9 27
12 43 12 25 0z m-403 -22 c-3 -8 -6 -5 -6 6 -1 11 2 17 5 13 3 -3 4 -12 1 -19z
m327 -13 c-23 -21 -33 -24 -68 -19 -57 9 -61 18 -5 11 38 -5 50 -3 64 13 10
11 22 20 27 20 5 0 -3 -11 -18 -25z m-125 -19 c-2 -3 -40 -18 -83 -35 -44 -17
-90 -40 -103 -52 -12 -13 -26 -20 -29 -17 -11 11 56 52 129 79 70 27 95 34 86
25z m-192 -38 c-3 -8 -6 -5 -6 6 -1 11 2 17 5 13 3 -3 4 -12 1 -19z m-300 -75
c-3 -10 -5 -2 -5 17 0 19 2 27 5 18 2 -10 2 -26 0 -35z m2078 -22 c-20 -19
-362 -315 -409 -354 -27 -23 -47 -36 -45 -30 5 16 440 393 453 393 6 0 6 -3 1
-9z m-2068 -38 c-3 -10 -5 -4 -5 12 0 17 2 24 5 18 2 -7 2 -21 0 -30z m32
-128 c-2 -17 -27 69 -27 90 0 11 6 -2 14 -30 7 -27 13 -54 13 -60z m-3440 42
c1 -5 -4 -5 -9 -2 -7 4 -9 -3 -5 -22 4 -23 4 -24 -4 -8 -6 12 -10 15 -10 6 -1
-8 -3 -12 -6 -10 -2 3 1 22 7 43 10 31 13 35 19 20 4 -11 8 -23 8 -27z m3997
-50 c10 -18 21 -27 30 -23 17 7 19 -10 2 -18 -7 -3 6 -5 29 -3 23 1 40 0 37
-2 -2 -3 10 -10 28 -16 18 -7 42 -16 52 -20 15 -7 17 -5 11 6 -5 8 1 6 13 -5
12 -10 21 -21 20 -25 -3 -28 5 -30 101 -26 98 3 100 3 117 -22 16 -25 16 -26
-2 -18 -51 20 -94 27 -146 22 -54 -5 -58 -3 -89 29 -33 34 -106 64 -155 64
-16 0 -31 14 -54 51 -17 29 -35 48 -39 43 -4 -5 -55 -127 -112 -271 l-104
-262 -38 37 c-45 43 -147 182 -134 182 2 0 20 -24 39 -52 50 -75 119 -151 129
-141 4 4 51 118 105 253 53 135 101 251 107 258 12 16 32 1 53 -41z m919 -106
c47 -51 84 -96 81 -99 -3 -2 -13 1 -22 9 -35 29 -204 221 -204 232 0 13 18 -4
145 -142z m-4775 120 c22 -11 39 -30 45 -49 10 -29 11 -30 23 -12 9 15 23 20
57 20 50 0 121 -25 129 -45 4 -11 -87 -345 -100 -367 -3 -4 -25 7 -49 24 -33
24 -58 32 -102 36 -41 3 -68 12 -90 29 -21 16 -51 26 -91 31 l-61 7 57 173 57
172 45 0 c25 0 61 -8 80 -19z m-190 -48 c-11 -17 -11 -17 -6 0 3 10 6 24 7 30
0 9 2 9 5 0 3 -7 0 -20 -6 -30z m3915 -225 c-53 -134 -101 -247 -107 -253 -14
-14 -17 -22 97 263 55 137 101 246 103 241 2 -4 -40 -118 -93 -251z m-3901
198 c-3 -9 -10 -13 -15 -10 -6 3 -7 -6 -4 -23 4 -23 4 -24 -4 -8 -6 12 -10 15
-10 6 -1 -8 -3 -12 -6 -10 -9 10 8 49 21 49 8 0 14 5 14 12 0 6 2 9 5 6 3 -3
3 -13 -1 -22z m3552 -113 c23 -51 41 -93 38 -93 -7 0 -92 181 -98 210 l-6 25
12 -25 c6 -14 30 -67 54 -117z m455 114 c-10 -9 -11 -8 -5 6 3 10 9 15 12 12
3 -3 0 -11 -7 -18z m665 11 c4 -7 2 -8 -4 -4 -7 4 -12 2 -12 -3 0 -6 -6 -11
-13 -11 -8 0 -14 6 -14 13 0 16 34 20 43 5z m-4240 -210 c-50 -175 -90 -299
-69 -213 4 17 7 48 6 70 0 26 2 33 6 21 5 -13 23 38 57 157 27 97 50 172 52
167 2 -5 -21 -96 -52 -202z m3750 157 c85 -42 85 -46 8 -276 -37 -109 -71
-204 -75 -211 -6 -9 -17 -5 -41 19 -41 39 -65 48 -149 57 l-66 7 79 197 c43
108 83 208 88 221 10 22 15 23 58 17 26 -3 70 -17 98 -31z m844 14 c0 -6 -4
-7 -10 -4 -5 3 -10 11 -10 16 0 6 5 7 10 4 6 -3 10 -11 10 -16z m-1033 -11
c-3 -8 -6 -5 -6 6 -1 11 2 17 5 13 3 -3 4 -12 1 -19z m616 5 c-7 -2 -19 -2
-25 0 -7 3 -2 5 12 5 14 0 19 -2 13 -5z m103 -15 c0 -10 -6 -18 -13 -18 -6 0
-11 8 -10 18 1 24 23 24 23 0z m-4750 -62 c-2 -6 -5 -2 -5 9 -1 17 -3 18 -12
5 -9 -12 -10 -12 -5 3 3 10 6 24 7 30 0 7 5 1 10 -12 5 -13 8 -29 5 -35z
m4001 -2 c-6 -20 -13 -32 -14 -27 -4 11 14 63 21 63 2 0 -1 -16 -7 -36z m753
20 c0 -8 -4 -12 -10 -9 -5 3 -10 10 -10 16 0 5 5 9 10 9 6 0 10 -7 10 -16z
m-4286 -38 c-3 -15 -8 -25 -11 -23 -2 3 -1 17 3 31 3 15 8 25 11 23 2 -3 1
-17 -3 -31z m4021 9 c17 -7 38 -21 47 -31 16 -19 13 -31 -58 -247 -41 -125
-79 -227 -83 -227 -4 0 -25 15 -47 33 -45 39 -91 57 -145 57 -22 0 -39 1 -39
3 0 1 16 47 36 102 19 55 51 148 70 207 33 101 37 108 67 117 37 11 108 5 152
-14z m-4506 -16 c1 8 3 12 6 9 3 -3 1 -16 -4 -29 -9 -21 -10 -22 -11 -4 0 17
-2 18 -11 5 -9 -12 -10 -12 -5 3 3 10 6 24 7 30 0 7 4 3 9 -8 5 -12 9 -14 9
-6z m4557 -275 c-50 -157 -92 -279 -94 -272 -2 12 162 528 175 551 14 24 1
-21 -81 -279z m-4092 212 c-3 -15 -8 -25 -11 -23 -2 3 -1 17 3 31 3 15 8 25
11 23 2 -3 1 -17 -3 -31z m-505 -17 c-7 -19 -16 -38 -20 -44 -5 -5 -2 12 7 38
9 27 18 46 20 44 2 -2 -1 -19 -7 -38z m20 -8 c-6 -18 -14 -30 -17 -27 -2 3 1
19 8 36 16 40 23 33 9 -9z m3988 -13 c-3 -7 -5 -2 -5 12 0 14 2 19 5 13 2 -7
2 -19 0 -25z m-28 -70 c-36 -92 -62 -149 -65 -145 -2 2 11 39 29 83 19 43 36
87 40 97 3 9 9 17 12 17 2 0 -5 -24 -16 -52z m621 15 c-11 -17 -11 -17 -6 0 3
10 6 24 7 30 0 9 2 9 5 0 3 -7 0 -20 -6 -30z m-4123 5 c-3 -8 -6 -5 -6 6 -1
11 2 17 5 13 3 -3 4 -12 1 -19z m-340 6 c-3 -3 -12 -4 -19 -1 -8 3 -5 6 6 6
11 1 17 -2 13 -5z m4402 -227 c-29 -89 -54 -157 -56 -150 -3 7 14 67 36 135
22 68 46 143 53 168 7 26 14 37 16 27 2 -9 -20 -90 -49 -180z m-364 -115 c-3
-3 -11 0 -18 7 -9 10 -8 11 6 5 10 -3 15 -9 12 -12z m92 12 c-3 -3 -12 -4 -19
-1 -8 3 -5 6 6 6 11 1 17 -2 13 -5z m198 -74 c3 -6 -1 -7 -9 -4 -18 7 -21 14
-7 14 6 0 13 -4 16 -10z"/>
<path d="M6770 9790 c-8 -5 -10 -10 -5 -10 6 0 17 5 25 10 8 5 11 10 5 10 -5
0 -17 -5 -25 -10z"/>
<path d="M7170 9345 c-14 -8 -20 -14 -14 -15 5 0 19 7 30 15 24 18 16 19 -16
0z"/>
<path d="M7034 9274 c-18 -14 -18 -15 4 -4 12 6 22 13 22 15 0 8 -5 6 -26 -11z"/>
<path d="M3706 9134 c-9 -26 -14 -49 -12 -51 2 -2 11 17 20 43 9 26 14 49 12
51 -2 2 -11 -17 -20 -43z"/>
<path d="M1195 8970 c-4 -6 -1 -9 7 -8 7 2 12 -2 11 -8 -1 -6 5 -11 13 -11 11
0 11 4 -3 19 -19 21 -20 21 -28 8z"/>
<path d="M2088 8553 c7 -3 16 -2 19 1 4 3 -2 6 -13 5 -11 0 -14 -3 -6 -6z"/>
<path d="M2420 8070 c-9 -6 -10 -10 -3 -10 6 0 15 5 18 10 8 12 4 12 -15 0z"/>
<path d="M987 8034 c-21 -41 -34 -80 -31 -86 4 -6 12 -1 20 13 7 13 10 27 8
31 -3 4 7 30 21 59 15 28 25 53 23 55 -2 2 -21 -31 -41 -72z"/>
<path d="M1282 7915 c-17 -37 -14 -45 4 -12 9 16 14 31 11 33 -2 2 -9 -7 -15
-21z"/>
<path d="M4801 3474 c0 -11 3 -14 6 -6 3 7 2 16 -1 19 -3 4 -6 -2 -5 -13z"/>
<path d="M8430 4855 c13 -14 26 -25 28 -25 3 0 -5 11 -18 25 -13 14 -26 25
-28 25 -3 0 5 -11 18 -25z"/>
<path d="M8510 4785 c13 -14 26 -25 28 -25 3 0 -5 11 -18 25 -13 14 -26 25
-28 25 -3 0 5 -11 18 -25z"/>
<path d="M8560 4746 c0 -2 8 -10 18 -17 15 -13 16 -12 3 4 -13 16 -21 21 -21
13z"/>
<path d="M8690 4646 c0 -2 8 -10 18 -17 15 -13 16 -12 3 4 -13 16 -21 21 -21
13z"/>
<path d="M8248 4613 c6 -2 18 -2 25 0 6 3 1 5 -13 5 -14 0 -19 -2 -12 -5z"/>
<path d="M8205 4370 c21 -22 41 -40 44 -40 3 0 -13 18 -34 40 -21 22 -41 40
-44 40 -3 0 13 -18 34 -40z"/>
<path d="M8260 4307 c0 -1 35 -36 78 -77 l77 -75 -75 78 c-69 71 -80 82 -80
74z"/>
<path d="M8465 4090 c10 -11 20 -20 23 -20 3 0 -3 9 -13 20 -10 11 -20 20 -23
20 -3 0 3 -9 13 -20z"/>
<path d="M5394 2488 l-19 -23 23 19 c12 11 22 21 22 23 0 8 -8 2 -26 -19z"/>
<path d="M6401 2334 c0 -11 3 -14 6 -6 3 7 2 16 -1 19 -3 4 -6 -2 -5 -13z"/>
<path d="M6431 2174 c0 -11 3 -14 6 -6 3 7 2 16 -1 19 -3 4 -6 -2 -5 -13z"/>
<path d="M4681 2064 c0 -11 3 -14 6 -6 3 7 2 16 -1 19 -3 4 -6 -2 -5 -13z"/>
<path d="M4691 1944 c0 -11 3 -14 6 -6 3 7 2 16 -1 19 -3 4 -6 -2 -5 -13z"/>
<path d="M4702 1780 c0 -14 2 -19 5 -12 2 6 2 18 0 25 -3 6 -5 1 -5 -13z"/>
<path d="M8257 2214 c-11 -12 -8 -44 4 -44 7 0 10 -12 7 -30 -3 -21 -1 -27 6
-20 5 5 10 26 10 45 0 35 -15 61 -27 49z"/>
<path d="M8460 2130 c0 -5 5 -10 11 -10 5 0 7 5 4 10 -3 6 -8 10 -11 10 -2 0
-4 -4 -4 -10z"/>
<path d="M8430 2060 c-8 -5 -12 -12 -9 -15 4 -3 12 1 19 10 14 17 11 19 -10 5z"/>
<path d="M8891 2344 c0 -11 3 -14 6 -6 3 7 2 16 -1 19 -3 4 -6 -2 -5 -13z"/>
<path d="M8876 2289 c-8 -42 0 -50 9 -9 4 17 5 34 2 36 -2 3 -7 -10 -11 -27z"/>
<path d="M8861 2224 c0 -11 3 -14 6 -6 3 7 2 16 -1 19 -3 4 -6 -2 -5 -13z"/>
<path d="M8851 2184 c0 -11 3 -14 6 -6 3 7 2 16 -1 19 -3 4 -6 -2 -5 -13z"/>
<path d="M8836 2134 c-4 -14 -5 -28 -3 -31 3 -2 8 8 11 23 4 14 5 28 3 31 -3
2 -8 -8 -11 -23z"/>
<path d="M7946 2020 c4 -14 13 -38 20 -55 11 -24 13 -25 8 -5 -4 14 -13 39
-20 55 -11 24 -13 25 -8 5z"/>
<path d="M7982 1918 c3 -7 13 -37 23 -66 9 -29 19 -52 21 -49 5 5 -36 127 -43
127 -3 0 -3 -6 -1 -12z"/>
<path d="M9334 1696 c0 -13 3 -24 6 -23 3 1 49 -43 102 -98 53 -55 99 -97 103
-93 4 4 -39 55 -96 113 -57 59 -103 111 -101 116 1 5 -2 9 -7 9 -5 0 -8 -11
-7 -24z"/>
<path d="M9359 1623 c31 -44 131 -139 131 -125 0 7 -30 44 -67 82 -67 71 -101
93 -64 43z"/>
<path d="M8980 1265 c13 -14 26 -25 28 -25 3 0 -5 11 -18 25 -13 14 -26 25
-28 25 -3 0 5 -11 18 -25z"/>
<path d="M8515 1140 c3 -5 8 -10 11 -10 2 0 4 5 4 10 0 6 -5 10 -11 10 -5 0
-7 -4 -4 -10z"/>
<path d="M4262 1098 c-18 -61 -31 -113 -29 -115 2 -2 19 46 37 107 17 61 30
113 28 115 -2 3 -19 -46 -36 -107z"/>
<path d="M4221 963 c-1 -6 -4 -20 -7 -30 -5 -17 -5 -17 6 0 6 10 9 23 6 30 -3
9 -5 9 -5 0z"/>
<path d="M2980 10223 c-84 -143 -230 -397 -230 -399 0 -2 10 -4 23 -4 25 0
191 -78 239 -111 15 -11 28 -29 28 -40 0 -17 5 -19 33 -14 45 8 231 -83 255
-125 9 -17 20 -30 23 -30 4 0 26 46 50 103 23 56 82 185 131 286 48 101 86
187 83 189 -3 3 -26 1 -52 -5 -41 -10 -50 -9 -71 7 -38 30 -119 53 -168 47
-42 -4 -45 -3 -60 30 -16 33 -85 83 -115 83 -8 0 5 -10 29 -21 52 -26 82 -62
82 -100 0 -15 -20 -71 -45 -125 -25 -53 -44 -99 -42 -101 2 -2 26 44 52 103
27 58 57 110 66 115 45 24 154 -4 206 -53 26 -24 32 -6 -101 -281 l-85 -178
-36 40 c-40 44 -107 81 -148 81 -15 0 -27 2 -27 5 0 3 16 37 35 75 19 38 35
73 35 77 -1 5 -19 -27 -41 -69 -21 -43 -41 -78 -43 -78 -2 0 -19 15 -38 34
-22 22 -54 40 -93 51 -33 10 -69 20 -81 24 -19 6 -13 20 88 200 59 107 106
196 104 199 -10 10 -28 -13 -72 -93 -46 -86 -72 -119 -34 -44 38 74 14 51 -39
-37 -28 -47 -48 -90 -45 -95 3 -6 0 -16 -6 -24 -6 -8 -9 -18 -6 -23 3 -5 -4
-9 -16 -8 -12 0 -23 -5 -26 -13 -3 -9 0 -11 8 -6 9 6 9 3 0 -15 -6 -12 -14
-19 -17 -16 -3 3 -12 -2 -20 -12 -27 -34 16 44 117 213 55 91 100 168 100 171
0 11 -21 2 -30 -13z m556 -290 c-53 -108 -159 -340 -179 -393 -5 -13 -6 -12
-6 1 -2 28 226 519 240 519 5 0 -20 -57 -55 -127z m-606 97 c-6 -11 -13 -20
-16 -20 -2 0 0 9 6 20 6 11 13 20 16 20 2 0 0 -9 -6 -20z m601 -47 c-10 -21
-36 -74 -56 -118 -21 -44 -55 -118 -77 -165 -22 -47 -44 -96 -49 -109 -5 -13
-12 -21 -15 -18 -8 8 171 399 199 435 18 23 17 12 -2 -25z m-384 -289 c-3 -3
-12 -4 -19 -1 -8 3 -5 6 6 6 11 1 17 -2 13 -5z"/>
<path d="M3001 10199 c-13 -22 -21 -43 -18 -45 3 -3 16 15 30 40 14 26 22 46
18 46 -4 0 -18 -18 -30 -41z"/>
<path d="M4479 10231 c-5 -12 -294 -121 -323 -121 -44 0 -46 -13 -16 -75 69
-143 241 -546 236 -554 -3 -4 3 -16 13 -25 17 -16 20 -16 28 -2 5 9 87 43 182
76 134 47 176 58 182 48 6 -9 11 -10 19 -2 11 11 3 40 -20 74 -18 27 -233 524
-239 555 -5 23 -13 31 -33 33 -14 2 -28 -1 -29 -7z m11 -33 c0 -14 -84 -51
-220 -97 -82 -28 -104 -31 -84 -11 7 7 282 116 302 120 1 0 2 -6 2 -12z m165
-301 c93 -211 121 -286 98 -264 -16 16 -241 542 -235 551 3 5 11 -4 19 -20 7
-16 60 -136 118 -267z m-148 256 c2 -6 -4 -10 -13 -9 -9 0 -19 -5 -21 -12 -4
-9 2 -11 20 -7 20 5 26 1 37 -27 14 -35 148 -342 182 -416 11 -24 18 -45 16
-45 -2 -1 -41 -15 -88 -31 -47 -16 -116 -42 -154 -57 -39 -16 -71 -27 -73 -26
-1 2 -53 122 -116 267 l-113 265 130 45 c72 25 140 51 151 58 22 13 37 11 42
-5z m-230 -356 c62 -144 115 -271 118 -282 6 -19 6 -19 -6 -1 -11 18 -239 534
-239 542 0 2 3 4 8 4 4 0 57 -119 119 -263z m464 -191 c0 -13 -272 -107 -296
-103 -25 4 -5 14 160 73 120 43 137 46 136 30z"/>
<path d="M4482 10085 c11 -26 32 -33 43 -15 3 6 -1 7 -10 4 -17 -7 -17 16 0
28 6 4 -2 8 -17 8 -26 0 -27 -2 -16 -25z"/>
<path d="M4516 10051 c-12 -5 -15 -10 -9 -14 6 -4 16 0 23 8 14 17 13 17 -14
6z"/>
<path d="M4530 10020 c-8 -5 -11 -12 -7 -16 4 -4 13 -2 19 4 15 15 7 24 -12
12z"/>
<path d="M4535 9970 c3 -5 10 -10 16 -10 5 0 9 5 9 10 0 6 -7 10 -16 10 -8 0
-12 -4 -9 -10z"/>
<path d="M4550 9943 c0 -14 19 -38 25 -32 8 8 -5 39 -16 39 -5 0 -9 -3 -9 -7z"/>
<path d="M4570 9890 c0 -5 5 -10 10 -10 6 0 10 5 10 10 0 6 -4 10 -10 10 -5 0
-10 -4 -10 -10z"/>
<path d="M4585 9860 c3 -5 10 -10 16 -10 5 0 9 5 9 10 0 6 -7 10 -16 10 -8 0
-12 -4 -9 -10z"/>
<path d="M4600 9828 c1 -14 24 -48 33 -48 3 0 -1 14 -9 30 -16 32 -24 38 -24
18z"/>
<path d="M4630 9764 c0 -3 11 -29 25 -56 14 -28 24 -52 23 -53 -2 -1 -25 -11
-53 -24 -37 -16 -42 -21 -20 -17 45 7 110 37 98 44 -6 4 -21 31 -34 60 -12 28
-26 52 -31 52 -4 0 -8 -3 -8 -6z"/>
<path d="M5455 10188 c28 -29 116 -120 197 -203 l147 -150 -16 -25 c-13 -20
-14 -23 -1 -13 8 7 17 10 20 7 3 -2 8 2 12 11 4 11 -50 72 -184 209 -105 107
-190 197 -190 200 0 16 38 -20 215 -202 l188 -193 -114 -115 c-62 -63 -117
-121 -122 -129 -4 -9 -14 -12 -20 -9 -7 4 -9 4 -5 -1 4 -4 -2 -25 -12 -46 -23
-45 -25 -69 -7 -69 34 0 146 89 249 197 61 65 169 174 240 243 116 114 145
150 119 150 -10 0 -97 81 -144 136 -35 39 -35 40 -11 40 14 0 20 -4 15 -9 -9
-9 75 -107 92 -107 5 0 4 7 -3 15 -7 8 -10 21 -7 28 3 8 -1 14 -9 14 -7 0 -11
-4 -8 -9 3 -4 0 -8 -5 -8 -10 0 -15 14 -12 33 0 4 -5 7 -11 7 -10 0 -10 2 0 9
8 4 14 12 13 17 0 5 11 8 24 6 14 -2 25 1 25 7 0 8 -29 11 -85 9 -47 -1 -85
-2 -85 -3 0 -1 34 -40 75 -86 107 -120 92 -123 -20 -4 -52 54 -96 97 -99 94
-3 -3 33 -47 80 -98 l86 -92 -78 -73 c-44 -40 -95 -87 -115 -104 l-36 -32
-199 200 c-153 154 -204 200 -223 200 -24 0 -23 -3 24 -52z m645 -168 c0 -5 7
-10 15 -10 8 0 15 5 15 10 0 6 6 10 12 10 7 0 -41 -54 -106 -119 -117 -117
-120 -119 -143 -104 -12 8 -23 19 -23 23 0 10 208 200 220 200 6 0 10 -4 10
-10z m-234 -244 c18 -14 17 -17 -35 -70 l-54 -55 -21 26 -20 26 48 44 c54 48
55 49 82 29z m-124 -113 c21 -19 23 -36 5 -52 -11 -8 -19 -5 -37 14 -19 20
-21 27 -10 40 16 19 19 19 42 -2z m-43 -57 l23 -24 -73 -51 c-40 -28 -74 -49
-77 -46 -9 9 81 142 99 144 3 1 16 -10 28 -23z"/>
<path d="M6580 10230 c-11 -7 -6 -10 20 -11 29 0 31 -2 15 -9 l-20 -9 20 -1
c11 -1 31 -1 44 0 19 1 21 -1 11 -12 -15 -15 -50 -19 -50 -5 0 5 -7 4 -15 -3
-13 -11 -13 -15 -3 -21 10 -7 10 -9 1 -9 -7 0 -13 -12 -13 -28 0 -22 6 -30 33
-40 17 -6 42 -9 53 -6 12 3 25 0 29 -7 5 -7 4 -10 -1 -7 -5 3 -18 2 -29 -3
-17 -7 -17 -8 8 -8 15 -1 27 -7 27 -14 0 -19 43 -37 61 -26 8 5 10 9 6 9 -5 0
-2 7 7 15 8 8 21 15 28 15 10 0 9 -3 -2 -10 -12 -7 -10 -9 7 -7 12 0 21 5 20
10 -2 9 12 12 68 18 43 4 48 0 42 -31 -4 -16 -5 -30 -2 -30 11 0 61 26 68 35
4 6 17 -1 34 -20 14 -16 32 -30 39 -31 19 -3 18 12 -2 20 -8 3 -13 10 -10 15
6 9 -22 26 -36 23 -5 -1 -8 7 -8 18 0 13 -7 20 -20 20 -11 0 -20 4 -20 9 0 5
8 7 19 4 23 -6 38 14 22 30 -6 6 -11 18 -11 27 0 13 2 13 11 0 8 -11 12 -12
16 -2 2 7 21 12 41 11 21 0 31 -3 25 -6 -20 -8 11 -33 41 -33 26 0 39 29 14
31 -7 0 -4 4 7 9 14 6 4 9 -36 9 -37 1 -61 6 -69 16 -11 13 -7 15 24 15 20 0
36 5 36 10 0 6 17 11 38 11 30 1 26 3 -19 9 -87 11 -552 11 -569 0z m185 -40
c15 -7 9 -8 -22 -6 -23 1 -46 5 -49 9 -10 10 47 7 71 -3z m15 -45 c11 -13 8
-19 -11 -17 -11 1 -2 -40 10 -47 10 -6 9 -10 -4 -14 -9 -4 -14 -3 -11 2 3 5
-1 12 -10 15 -9 3 -12 2 -9 -4 9 -15 16 -60 9 -60 -3 0 -12 7 -20 15 -9 8 -11
15 -5 15 6 0 8 7 5 15 -3 8 3 30 14 49 19 32 19 33 1 29 -10 -3 -19 0 -19 6 0
16 36 13 50 -4z m20 -39 c0 -2 -7 -7 -16 -10 -8 -3 -12 -2 -9 4 6 10 25 14 25
6z m76 -28 c-19 -13 -24 -9 -19 11 4 16 8 17 18 8 9 -9 10 -14 1 -19z m117
-33 c-3 -9 -8 -14 -10 -11 -3 3 -2 9 2 15 9 16 15 13 8 -4z"/>
<path d="M7313 10223 c26 -2 68 -2 95 0 26 2 4 3 -48 3 -52 0 -74 -1 -47 -3z"/>
<path d="M3150 10166 c0 -2 7 -7 16 -10 8 -3 12 -2 9 4 -6 10 -25 14 -25 6z"/>
<path d="M7330 10166 c0 -2 9 -6 20 -9 11 -3 20 -1 20 4 0 5 -9 9 -20 9 -11 0
-20 -2 -20 -4z"/>
<path d="M7338 10143 c6 -2 10 -9 6 -14 -3 -5 11 -9 32 -9 32 0 35 -2 23 -16
-8 -10 -15 -12 -17 -5 -5 16 -19 14 -19 -3 0 -8 3 -14 6 -13 3 1 6 -2 6 -8 0
-5 -3 -9 -7 -7 -15 4 -8 -16 8 -22 10 -4 13 -2 8 6 -4 7 -3 8 4 4 6 -4 9 -13
5 -21 -3 -8 0 -15 7 -15 7 0 6 -6 -4 -16 -18 -18 -21 -44 -5 -44 6 0 9 -6 6
-14 -3 -8 1 -17 9 -20 24 -9 27 -7 16 7 -8 10 -6 13 8 13 10 0 16 -5 12 -11
-3 -5 2 -4 12 4 9 8 13 17 9 20 -12 9 -10 115 2 123 6 5 5 8 -3 8 -7 0 -10 5
-7 10 3 6 -1 10 -9 10 -14 0 -20 11 -18 31 1 3 -5 6 -13 6 -8 0 -12 -4 -9 -9
3 -4 1 -8 -5 -8 -5 0 -13 5 -17 11 -4 8 -9 7 -15 -2 -6 -10 -9 -11 -9 -1 0 6
-8 12 -17 11 -11 0 -13 -3 -5 -6z"/>
<path d="M7560 10125 c0 -8 -7 -15 -15 -15 -11 0 -15 -11 -15 -36 0 -25 3 -33
13 -28 7 5 6 0 -3 -11 -8 -10 -10 -16 -3 -12 8 5 13 -6 16 -35 3 -42 4 -41 7
12 l3 55 7 -60 7 -60 1 73 c1 39 -2 72 -7 72 -5 0 -7 14 -5 30 3 17 3 30 0 30
-3 0 -6 -7 -6 -15z"/>
<path d="M7505 10110 c-3 -5 -1 -10 4 -10 6 0 11 5 11 10 0 6 -2 10 -4 10 -3
0 -8 -4 -11 -10z"/>
<path d="M6558 10093 c7 -3 16 -2 19 1 4 3 -2 6 -13 5 -11 0 -14 -3 -6 -6z"/>
<path d="M7507 10083 c-3 -5 -1 -17 4 -28 7 -17 8 -17 8 8 1 27 -4 34 -12 20z"/>
<path d="M6660 10030 c0 -5 5 -10 11 -10 5 0 7 -6 3 -12 -5 -9 -2 -9 9 1 18
15 23 26 7 16 -5 -3 -10 -1 -10 4 0 6 -4 11 -10 11 -5 0 -10 -4 -10 -10z"/>
<path d="M6527 10000 c5 -19 6 -20 20 -3 13 17 14 17 8 -4 -7 -26 9 -38 27
-20 7 8 23 13 36 12 23 -2 30 19 10 31 -7 4 -8 3 -4 -4 5 -8 -1 -12 -18 -12
-14 0 -30 -8 -35 -17 -9 -16 -10 -14 -8 7 1 19 -3 26 -20 28 -17 3 -20 -1 -16
-18z"/>
<path d="M7360 9999 c0 -5 5 -7 10 -4 6 3 10 8 10 11 0 2 -4 4 -10 4 -5 0 -10
-5 -10 -11z"/>
<path d="M6705 9990 c3 -5 3 -10 -2 -10 -4 0 -8 -13 -8 -29 0 -21 3 -27 12
-20 7 6 12 6 15 -1 1 -5 9 -1 16 10 10 17 10 20 -3 20 -16 0 -16 20 0 32 6 4
0 8 -13 8 -13 0 -20 -4 -17 -10z"/>
<path d="M6905 9990 c-16 -7 -17 -9 -3 -9 9 -1 20 4 23 9 7 11 7 11 -20 0z"/>
<path d="M2851 9952 c-17 -31 -13 -40 5 -14 9 13 14 26 11 29 -3 2 -10 -4 -16
-15z"/>
<path d="M7080 9962 c0 -5 6 -17 14 -27 13 -18 14 -18 9 8 -5 24 -23 39 -23
19z"/>
<path d="M6115 9952 c-2 -3 -2 -8 1 -13 5 -9 34 -1 34 10 0 8 -27 10 -35 3z"/>
<path d="M6527 9953 c-10 -9 -9 -23 1 -23 5 0 9 7 9 15 0 17 -1 18 -10 8z"/>
<path d="M6599 9902 c-1 -4 -1 -10 0 -14 0 -5 -3 -8 -9 -8 -5 0 -10 -7 -10
-16 0 -8 4 -13 8 -10 5 3 15 -6 22 -19 l13 -25 12 23 c23 46 26 60 10 53 -8
-3 -14 0 -12 6 1 5 -6 12 -15 13 -10 2 -19 0 -19 -3z"/>
<path d="M6580 9830 c0 -5 5 -10 10 -10 6 0 10 5 10 10 0 6 -4 10 -10 10 -5 0
-10 -4 -10 -10z"/>
<path d="M7160 9805 c0 -19 32 -65 42 -59 7 5 6 11 -5 19 -10 7 -17 17 -17 23
0 6 -4 14 -10 17 -5 3 -10 3 -10 0z"/>
<path d="M6610 9788 c0 -6 7 -8 14 -5 10 4 13 1 9 -8 -3 -8 -9 -13 -13 -10
-12 7 -16 -11 -12 -54 3 -32 7 -38 23 -34 15 4 19 0 20 -18 1 -17 3 -19 6 -6
2 9 9 17 14 17 6 0 7 5 3 12 -4 6 -3 8 3 5 6 -4 13 -1 15 6 7 17 -2 38 -13 32
-5 -4 -6 0 -3 8 2 7 -4 24 -14 37 -20 24 -52 36 -52 18z"/>
<path d="M7206 9707 c3 -10 9 -15 12 -12 3 3 0 11 -7 18 -10 9 -11 8 -5 -6z"/>
<path d="M6699 9680 c-1 -8 -1 -20 0 -27 1 -6 -5 -13 -13 -15 -11 -2 -11 -5
-2 -14 10 -9 15 -5 23 16 6 16 7 34 2 41 -7 12 -9 11 -10 -1z"/>
<path d="M8691 9405 c-111 -134 -201 -247 -201 -249 0 -2 15 -7 33 -10 58 -11
227 -143 227 -177 0 -22 26 -44 35 -29 15 24 213 -118 241 -172 l15 -29 110
146 c61 81 146 192 189 248 43 55 77 104 74 109 -3 4 -23 8 -46 8 -31 0 -49 7
-74 30 -47 41 -105 69 -159 77 -39 5 -45 9 -45 29 0 34 -62 98 -119 123 -49
21 -50 22 -56 76 -4 30 -11 57 -15 60 -5 3 -99 -105 -209 -240z m133 112 c-38
-45 -108 -131 -157 -190 -49 -59 -87 -110 -84 -113 4 -5 162 181 260 308 22
27 41 47 44 44 3 -3 -7 -22 -23 -43 -56 -74 -272 -328 -295 -348 l-24 -20 18
21 c26 32 20 41 -9 13 -52 -48 -8 13 132 181 75 91 151 184 168 206 17 23 33
38 34 33 2 -5 -27 -46 -64 -92z m141 -16 c55 -25 103 -75 111 -116 5 -29 1
-41 -26 -77 l-33 -43 41 44 c39 40 44 43 79 36 64 -12 173 -79 173 -107 0 -14
-280 -388 -290 -388 -4 0 -19 18 -33 39 -32 48 -77 83 -139 106 -34 12 -50 25
-59 46 -16 41 -60 75 -128 100 l-59 21 125 157 c184 229 166 215 238 182z
m264 -443 c-142 -187 -192 -249 -187 -232 7 24 294 403 306 403 7 1 -46 -77
-119 -171z m155 160 c-4 -7 -63 -84 -131 -171 -68 -87 -142 -185 -165 -217
-23 -33 -44 -58 -46 -55 -5 5 23 45 193 269 77 102 144 185 148 186 5 0 5 -6
1 -12z m-763 -95 c13 -16 12 -17 -3 -4 -10 7 -18 15 -18 17 0 8 8 3 21 -13z
m80 -60 c13 -16 12 -17 -3 -4 -10 7 -18 15 -18 17 0 8 8 3 21 -13z m250 -190
c13 -16 12 -17 -3 -4 -10 7 -18 15 -18 17 0 8 8 3 21 -13z"/>
<path d="M9000 9435 c13 -14 26 -25 28 -25 3 0 -5 11 -18 25 -13 14 -26 25
-28 25 -3 0 5 -11 18 -25z"/>
<path d="M8985 9400 c10 -11 20 -20 23 -20 3 0 -3 9 -13 20 -10 11 -20 20 -23
20 -3 0 3 -9 13 -20z"/>
<path d="M9240 9266 c0 -2 8 -10 18 -17 15 -13 16 -12 3 4 -13 16 -21 21 -21
13z"/>
<path d="M8999 9243 c-13 -16 -12 -17 4 -4 9 7 17 15 17 17 0 8 -8 3 -21 -13z"/>
<path d="M8909 9128 c-75 -94 -93 -118 -86 -118 4 0 99 118 140 173 53 71 19
36 -54 -55z"/>
<path d="M8790 9156 c0 -2 8 -10 18 -17 15 -13 16 -12 3 4 -13 16 -21 21 -21
13z"/>
<path d="M6058 9412 c-80 -53 -150 -100 -153 -104 -4 -4 17 -19 47 -34 l54
-26 -9 -47 c-6 -26 -7 -63 -3 -84 6 -34 15 -41 102 -93 109 -64 93 -65 228 13
l78 46 -4 64 c-2 38 -9 68 -17 72 -9 6 9 16 53 31 37 12 66 26 64 30 -5 13
-272 230 -283 230 -5 0 -76 -44 -157 -98z m173 -109 l24 -28 -25 22 -25 22
-64 -41 -63 -42 24 -18 c13 -10 40 -30 61 -44 37 -26 38 -27 60 -8 l22 18 -23
-24 c-16 -18 -26 -22 -36 -15 -7 6 -39 28 -70 49 l-56 39 72 49 c40 26 73 48
74 48 0 0 11 -12 25 -27z m54 -43 c10 -11 16 -20 13 -20 -3 0 -13 9 -23 20
-10 11 -16 20 -13 20 3 0 13 -9 23 -20z"/>
<path d="M5346 9487 c3 -10 9 -15 12 -12 3 3 0 11 -7 18 -10 9 -11 8 -5 -6z"/>
<path d="M6570 9312 c0 -5 7 -9 15 -9 8 0 12 4 9 9 -3 4 -9 8 -15 8 -5 0 -9
-4 -9 -8z"/>
<path d="M5466 9302 c-3 -5 12 -28 33 -53 35 -40 38 -42 37 -19 -1 17 -7 25
-19 24 -15 -2 -21 8 -18 29 0 4 -5 6 -11 5 -7 -2 -12 3 -10 10 2 14 -4 16 -12
4z"/>
<path d="M8067 9243 c-4 -3 -7 -25 -8 -47 0 -38 -4 -43 -47 -71 -57 -37 -92
-87 -92 -133 0 -27 -3 -33 -16 -28 -34 13 -95 -15 -151 -68 -45 -45 -62 -54
-99 -59 -25 -2 -48 -7 -51 -10 -3 -4 66 -79 154 -169 87 -90 185 -191 218
-225 32 -35 61 -63 65 -63 4 0 13 12 21 27 19 36 199 193 221 193 11 0 18 7
18 19 0 23 175 189 207 198 13 3 23 10 22 17 0 6 -66 72 -146 146 -80 74 -181
168 -223 208 -80 75 -82 76 -93 65z m113 -108 c171 -159 322 -305 316 -305 -4
0 -70 60 -147 133 -232 218 -275 260 -254 246 11 -7 49 -40 85 -74z m170 -195
c63 -62 87 -88 53 -58 -105 90 -321 293 -322 302 -1 10 119 -99 269 -244z
m-85 39 c88 -84 160 -157 160 -162 0 -5 -22 -18 -50 -29 -60 -23 -103 -62
-113 -102 -4 -16 -13 -31 -19 -33 -12 -4 -293 286 -307 317 -13 28 1 66 39
109 42 46 93 73 115 61 8 -5 87 -77 175 -161z m-183 -186 l158 -157 -32 -13
c-56 -24 -97 -63 -125 -116 l-26 -52 -160 165 c-88 91 -167 175 -175 188 -14
22 -13 25 24 64 54 56 92 78 138 78 38 0 47 -8 198 -157z m-42 -396 c0 -9
-288 286 -364 373 -27 30 44 -39 157 -155 114 -115 207 -214 207 -218z m-147
198 l151 -160 -138 135 c-75 74 -156 158 -179 185 -65 79 -2 18 166 -160z
m527 172 c0 -2 -17 -19 -37 -38 l-38 -34 34 38 c33 34 41 42 41 34z m-160
-161 c0 -2 -8 -10 -17 -17 -16 -13 -17 -12 -4 4 13 16 21 21 21 13z m-98 -59
c-12 -13 -20 -26 -17 -28 2 -3 -14 -23 -38 -45 l-42 -39 40 43 c21 23 35 42
30 42 -5 0 2 11 15 25 13 14 26 25 28 25 3 0 -4 -10 -16 -23z m48 20 c0 -2
-12 -14 -27 -28 l-28 -24 24 28 c23 25 31 32 31 24z"/>
<path d="M8049 9063 c-13 -16 -12 -17 4 -4 9 7 17 15 17 17 0 8 -8 3 -21 -13z"/>
<path d="M7794 8878 l-19 -23 23 19 c12 11 22 21 22 23 0 8 -8 2 -26 -19z"/>
<path d="M5546 9205 c-3 -8 -1 -15 4 -15 6 0 10 7 10 15 0 8 -2 15 -4 15 -2 0
-6 -7 -10 -15z"/>
<path d="M5580 9156 c14 -15 34 -32 45 -37 19 -10 19 -9 1 5 -10 8 -15 19 -11
25 4 7 0 8 -11 4 -13 -5 -15 -3 -9 8 4 8 5 11 0 7 -4 -4 -15 -2 -24 4 -9 7 -5
0 9 -16z"/>
<path d="M5660 9085 c7 -9 15 -14 17 -12 2 2 20 -11 40 -29 20 -19 39 -31 42
-28 3 3 -2 10 -12 15 -9 6 -27 20 -40 33 -27 28 -68 46 -47 21z"/>
<path d="M5770 9006 c0 -2 7 -7 16 -10 8 -3 12 -2 9 4 -6 10 -25 14 -25 6z"/>
<path d="M6593 8853 c-18 -2 -33 -10 -33 -17 0 -19 37 -16 56 5 9 10 15 18 13
17 -2 0 -19 -3 -36 -5z"/>
<path d="M6280 8830 c0 -5 5 -10 11 -10 5 0 7 5 4 10 -3 6 -8 10 -11 10 -2 0
-4 -4 -4 -10z"/>
<path d="M9177 8522 c-9 -10 -17 -25 -17 -33 0 -8 -34 -89 -76 -179 -42 -91
-96 -212 -121 -270 -25 -58 -52 -113 -61 -122 -14 -16 -13 -20 3 -38 10 -11
21 -17 26 -14 10 6 246 -112 304 -152 21 -14 41 -22 45 -17 4 4 67 139 140
298 73 160 142 300 153 312 21 24 16 42 -11 41 -30 -1 -326 142 -348 168 -20
24 -21 24 -37 6z m198 -111 c82 -37 151 -74 153 -81 6 -18 -23 -7 -180 68 -76
35 -135 69 -132 73 7 12 -7 17 159 -60z m-310 -213 c-64 -145 -121 -267 -126
-273 -14 -14 -4 12 83 205 126 280 153 338 157 335 1 -2 -49 -122 -114 -267z
m398 127 c26 -10 47 -20 47 -22 0 -3 -20 -44 -44 -91 -44 -86 -122 -257 -173
-380 -15 -34 -30 -61 -34 -60 -65 25 -297 146 -294 153 5 12 177 399 210 473
l24 53 108 -54 c59 -30 129 -62 156 -72z m77 -33 c0 -9 -191 -426 -230 -502
-13 -25 -25 -40 -27 -33 -5 14 237 543 249 543 4 0 8 -4 8 -8z m-411 -476 c74
-37 129 -71 126 -77 -7 -10 -305 139 -305 153 0 11 31 -2 179 -76z"/>
<path d="M9426 8312 c-6 -5 40 -32 56 -32 5 0 8 5 6 12 -5 13 -53 29 -62 20z"/>
<path d="M9441 8261 c-7 -5 -11 -13 -7 -19 3 -6 -1 -17 -9 -25 -8 -9 -15 -23
-15 -32 0 -8 -7 -18 -15 -21 -8 -4 -15 -17 -15 -30 0 -13 -4 -24 -10 -24 -15
0 -12 -27 3 -33 7 -3 13 3 14 14 1 10 20 54 42 98 38 79 40 90 12 72z"/>
<path d="M9339 8058 c0 -2 -2 -14 -3 -26 -2 -13 -9 -28 -17 -33 -8 -5 -10 -9
-5 -9 5 0 3 -6 -3 -14 -7 -8 -13 -22 -15 -32 -11 -51 -25 -71 -55 -77 -37 -8
-38 -14 -7 -56 l25 -34 7 29 c3 16 26 75 50 131 46 106 51 123 34 123 -5 0
-10 -1 -11 -2z m-79 -218 c0 -5 -4 -10 -9 -10 -6 0 -13 5 -16 10 -3 6 1 10 9
10 9 0 16 -4 16 -10z"/>
<path d="M8367 8403 c-4 -3 -7 -14 -7 -24 0 -9 -52 -124 -116 -255 -63 -132
-125 -261 -136 -289 -12 -27 -31 -60 -42 -73 -17 -20 -18 -24 -6 -32 8 -5 21
-10 27 -10 25 0 323 -155 323 -167 0 -27 29 -12 39 20 18 55 278 557 300 581
12 12 21 25 21 29 0 3 -21 15 -46 26 -86 39 -309 165 -322 183 -14 19 -24 22
-35 11z m192 -124 c128 -69 173 -99 145 -99 -8 0 -232 115 -271 140 -27 16
-44 40 -29 40 2 0 72 -36 155 -81z m-184 44 c-6 -24 -250 -540 -261 -552 -2
-2 -7 -1 -10 2 -4 4 7 37 24 74 58 128 243 503 249 503 3 0 2 -12 -2 -27z
m263 -127 l62 -29 -19 -31 c-14 -24 -262 -511 -267 -524 0 -1 -66 32 -146 73
l-146 75 97 198 c53 108 114 235 136 282 l40 85 91 -50 c50 -27 118 -63 152
-79z m-23 -258 c-128 -252 -176 -341 -182 -335 -5 5 44 105 184 375 52 101 98
181 100 178 3 -3 -43 -101 -102 -218z m-356 -263 c111 -55 159 -85 136 -85
-10 0 -285 140 -285 145 0 12 29 1 149 -60z"/>
<path d="M8390 8296 c0 -7 203 -113 230 -120 14 -4 -29 22 -95 58 -113 62
-135 72 -135 62z"/>
<path d="M8291 8054 c-56 -113 -113 -223 -126 -244 -29 -46 -30 -50 -10 -50 8
0 63 -25 123 -55 59 -30 98 -48 87 -39 -11 9 -60 36 -110 61 -107 54 -101 49
-87 66 7 8 57 106 113 218 56 112 108 211 116 221 8 9 10 18 5 22 -5 3 -55
-87 -111 -200z"/>
<path d="M9572 7298 c-7 -7 -7 -16 -1 -27 16 -24 -96 -349 -119 -347 -9 0 -17
-5 -17 -12 0 -15 38 -30 390 -163 132 -49 250 -97 263 -105 30 -19 52 -11 52
18 0 40 73 239 83 225 5 -7 7 -2 3 14 -3 15 -1 41 5 58 6 17 9 35 7 41 -2 6
-25 -53 -52 -132 -27 -79 -52 -153 -57 -166 l-9 -22 -52 21 c-29 11 -165 63
-302 115 -138 52 -251 96 -253 98 -2 2 22 78 53 170 47 138 59 166 73 161 9
-4 120 -43 246 -87 127 -44 253 -89 281 -99 l52 -20 -54 -167 c-29 -92 -53
-171 -53 -177 0 -5 25 62 55 150 29 88 59 170 65 181 26 51 35 47 -436 207
-82 28 -152 54 -155 57 -10 14 -57 19 -68 8z m280 -99 c112 -39 242 -84 291
-101 48 -16 85 -34 82 -38 -3 -5 -56 9 -118 31 -62 22 -191 68 -287 101 -162
57 -212 78 -183 78 7 0 103 -32 215 -71z m-303 -124 c-29 -85 -56 -155 -61
-155 -4 0 19 74 50 165 31 91 58 161 60 155 2 -5 -20 -79 -49 -165z m256 -285
c149 -57 272 -104 274 -106 2 -2 2 -6 -1 -9 -6 -7 -559 202 -572 216 -16 17 0
12 299 -101z"/>
<path d="M205 7160 c-3 -5 -3 -15 0 -20 4 -6 -19 -85 -51 -176 -49 -140 -61
-165 -81 -170 -13 -4 -23 -9 -23 -11 0 -10 35 -32 51 -33 8 0 71 -23 140 -50
68 -28 203 -80 299 -116 96 -36 185 -72 197 -80 25 -16 37 -6 49 41 17 67 115
330 130 346 17 19 8 30 -30 35 -43 5 -621 217 -629 230 -9 16 -43 19 -52 4z
m-25 -204 c-51 -150 -69 -193 -70 -168 0 22 115 344 118 330 1 -8 -20 -81 -48
-162z m388 68 c163 -58 299 -108 301 -110 23 -22 -46 -2 -261 76 -139 50 -273
99 -298 107 -48 17 -73 33 -51 33 7 0 146 -48 309 -106z m-19 -24 c234 -84
290 -108 285 -120 -4 -8 -30 -82 -58 -165 -28 -82 -52 -152 -54 -154 -4 -7
-557 209 -560 219 -2 5 -10 6 -19 3 -11 -4 -14 -2 -10 8 3 8 29 83 57 167 29
84 56 152 60 150 4 -2 139 -50 299 -108z m260 -282 c-33 -95 -62 -174 -64
-176 -25 -25 33 177 90 311 8 20 19 37 25 37 5 0 -18 -77 -51 -172z m60 103
c-12 -34 -23 -60 -25 -58 -2 2 6 32 17 66 12 34 23 60 25 58 2 -2 -6 -32 -17
-66z m-445 -163 c160 -61 293 -113 295 -115 2 -1 2 -5 -1 -8 -7 -8 -590 214
-607 230 -16 17 55 -8 313 -107z m380 -17 c-20 -56 -38 -100 -40 -98 -2 2 12
50 32 106 21 56 39 100 41 98 2 -2 -13 -50 -33 -106z"/>
<path d="M241 7049 c-7 -22 -11 -43 -8 -45 2 -2 9 14 16 37 7 22 11 43 8 45
-2 2 -9 -14 -16 -37z"/>
<path d="M166 6825 c-9 -26 -7 -32 5 -12 6 10 9 21 6 23 -2 3 -7 -2 -11 -11z"/>
<path d="M10176 7015 c-9 -26 -7 -32 5 -12 6 10 9 21 6 23 -2 3 -7 -2 -11 -11z"/>
<path d="M10126 6873 c-20 -59 -36 -113 -35 -118 0 -6 18 41 40 104 21 63 37
116 35 118 -2 3 -20 -44 -40 -104z"/>
<path d="M10081 6724 c0 -11 3 -14 6 -6 3 7 2 16 -1 19 -3 4 -6 -2 -5 -13z"/>
<path d="M9440 6488 c-77 -164 -150 -392 -150 -469 0 -18 4 -17 45 11 l46 31
32 -20 c36 -22 254 -111 272 -111 26 0 204 412 192 444 -3 8 -24 24 -47 36
-22 11 -40 22 -40 25 0 2 9 19 20 37 11 18 20 36 20 39 0 3 -24 6 -52 6 -36 0
-88 12 -157 36 -57 21 -110 37 -118 37 -8 0 -35 -44 -63 -102z m200 47 c63
-20 127 -35 142 -33 33 5 34 0 8 -45 l-20 -34 51 -23 c59 -28 58 -23 2 -165
-28 -70 -126 -279 -137 -292 -9 -10 -296 116 -296 129 0 5 -12 1 -27 -10 -58
-39 -57 -40 -49 19 16 126 169 508 198 496 7 -2 65 -21 128 -42z"/>
<path d="M9495 6537 c-42 -64 -145 -344 -160 -434 l-7 -43 76 52 c42 28 78 49
81 46 4 -3 -9 -15 -28 -27 -68 -42 -67 -47 14 -85 41 -19 104 -46 142 -60 l67
-25 29 57 c37 73 127 289 135 323 5 22 0 28 -39 47 l-44 21 -30 -43 c-16 -24
-32 -54 -36 -65 -3 -12 -11 -21 -18 -21 -8 0 -8 3 1 12 22 22 13 37 -34 58
-26 11 -50 20 -54 20 -4 0 -23 -38 -42 -85 -32 -77 -34 -86 -19 -95 9 -5 12
-9 6 -10 -34 0 -35 18 -5 89 17 39 35 83 40 96 l9 24 53 -24 c29 -14 58 -25
63 -25 6 0 27 31 47 68 l37 68 -92 28 c-51 16 -111 35 -135 42 -40 12 -43 12
-57 -9z m163 -298 c-6 -16 -12 -28 -14 -26 -5 5 13 57 20 57 3 0 0 -14 -6 -31z
m-63 -79 c3 -6 -1 -7 -9 -4 -18 7 -21 14 -7 14 6 0 13 -4 16 -10z"/>
<path d="M320 6263 c-47 -53 -138 -151 -202 -218 -65 -67 -118 -129 -118 -137
0 -8 21 -29 48 -46 96 -63 182 -142 189 -173 4 -21 10 -28 20 -25 8 3 27 -1
42 -9 51 -26 176 -137 194 -172 10 -20 22 -31 27 -27 54 60 380 478 380 488 0
3 -22 6 -49 6 -44 0 -51 4 -75 34 -28 38 -99 77 -137 75 -21 -1 -21 -2 6 -8
49 -12 90 -38 124 -76 39 -45 49 -27 -137 -258 l-136 -169 -23 45 c-26 52 -93
113 -134 122 -16 4 -29 9 -29 12 0 12 253 309 273 320 12 7 16 13 10 13 -7 0
-13 12 -13 26 0 39 -35 89 -87 123 -26 17 -50 31 -55 31 -4 0 -8 13 -8 29 0
38 -11 91 -19 90 -3 0 -44 -44 -91 -96z m34 -6 c-115 -120 -246 -268 -242
-273 3 -3 55 50 116 118 124 138 182 197 182 182 0 -5 -8 -16 -17 -25 -10 -8
-49 -50 -88 -94 -182 -206 -245 -272 -245 -259 0 6 11 21 25 34 14 13 25 28
25 34 0 6 -21 -10 -46 -34 -90 -87 -37 -20 112 142 83 89 168 182 189 206 21
23 40 40 43 37 3 -3 -21 -34 -54 -68z m105 -36 c20 -11 54 -38 75 -62 33 -36
37 -46 33 -76 -4 -20 -12 -43 -20 -52 -7 -9 -67 -80 -132 -158 -64 -79 -121
-143 -125 -143 -4 0 -13 13 -19 29 -18 43 -70 87 -125 108 -27 10 -48 23 -46
28 4 15 303 345 313 345 4 0 25 -9 46 -19z m415 -293 c-4 -7 -33 -44 -64 -83
-31 -38 -110 -137 -174 -218 -65 -81 -120 -146 -123 -143 -3 2 58 82 134 178
76 95 154 193 173 218 31 41 49 59 58 60 2 0 0 -6 -4 -12z m-65 -40 c-127
-164 -367 -448 -288 -341 73 97 305 382 312 383 5 0 -6 -19 -24 -42z m-684
-48 c10 -11 16 -20 13 -20 -3 0 -13 9 -23 20 -10 11 -16 20 -13 20 3 0 13 -9
23 -20z m56 -47 c13 -16 12 -17 -3 -4 -17 13 -22 21 -14 21 2 0 10 -8 17 -17z
m253 -170 c26 -35 14 -28 -29 19 -24 24 -30 33 -14 23 14 -11 33 -29 43 -42z
m6 -45 c0 -13 -4 -10 -45 34 l-40 41 43 -33 c23 -18 42 -37 42 -42z"/>
<path d="M10072 5860 c-89 -83 -162 -157 -162 -164 0 -16 21 -26 54 -26 16 0
51 -36 134 -137 61 -76 118 -147 126 -158 9 -11 16 -15 16 -9 0 5 -48 68 -106
140 -59 71 -113 139 -122 152 -9 13 -24 22 -41 22 -64 1 -55 14 111 173 90 86
160 157 157 157 -3 0 -78 -68 -167 -150z"/>
<path d="M10105 5854 c-72 -67 -136 -128 -143 -136 -14 -17 -9 -19 108 -35
l55 -8 -49 -5 -49 -5 104 -128 104 -128 3 140 c1 78 1 205 0 284 l-3 142 -130
-121z"/>
<path d="M620 5896 c0 -2 8 -10 18 -17 15 -13 16 -12 3 4 -13 16 -21 21 -21
13z"/>
<path d="M388 4773 c-23 -53 -311 -598 -325 -615 -21 -24 -13 -54 14 -50 32 4
285 -140 301 -172 7 -14 19 -26 26 -26 16 0 38 24 30 32 -3 3 26 61 64 129 38
68 111 205 162 304 52 99 100 185 108 191 19 14 9 44 -15 44 -10 0 -54 21 -98
46 -44 25 -110 61 -146 79 -37 19 -69 41 -72 49 -10 25 -36 19 -49 -11z m111
-44 c194 -109 232 -132 224 -138 -4 -3 -9 -12 -11 -20 -6 -27 -314 -601 -323
-601 -16 0 -289 154 -289 163 0 5 10 5 23 2 20 -7 21 -6 4 7 -17 12 -12 24 71
178 67 126 207 393 218 418 1 2 63 -31 139 -73 75 -42 138 -75 140 -73 2 2
-52 35 -121 73 -140 77 -166 94 -145 95 7 0 39 -14 70 -31z m-152 -105 c-30
-55 -98 -181 -151 -281 -84 -158 -116 -210 -116 -189 0 5 107 207 262 494 28
53 53 91 55 85 2 -6 -20 -55 -50 -109z m313 -221 c-125 -240 -231 -432 -241
-438 -9 -6 -1 22 11 40 4 6 58 107 120 225 153 291 181 342 187 336 3 -3 -32
-76 -77 -163z"/>
<path d="M420 4716 c0 -6 209 -123 235 -132 11 -3 -28 21 -87 54 -139 79 -148
84 -148 78z"/>
<path d="M170 4115 c0 -2 24 -17 53 -31 28 -15 76 -42 106 -61 29 -19 55 -32
58 -30 5 6 -89 63 -164 101 -29 15 -53 24 -53 21z"/>
<path d="M9711 4763 l-154 -4 8 -267 c4 -147 10 -305 14 -352 l6 -85 35 1 c19
1 113 3 208 4 183 4 209 11 185 49 -9 15 -32 577 -24 605 1 6 0 20 -3 32 -6
24 19 22 -275 17z m61 -43 l-157 -5 3 -165 c1 -91 5 -229 8 -307 l7 -143 163
0 c103 0 164 -4 164 -10 0 -6 -51 -10 -134 -10 -73 0 -154 -3 -179 -6 l-45 -6
-6 83 c-3 46 -8 198 -12 336 l-6 253 168 2 c105 2 172 -1 176 -7 5 -6 -48 -12
-150 -15z m169 -57 c1 -27 3 -59 4 -73 1 -14 6 -125 10 -247 l7 -223 -136 0
-136 0 -2 40 c-1 22 -2 52 -3 68 -1 15 -5 127 -9 249 l-7 222 118 4 c65 1 126
4 136 5 14 2 17 -7 18 -45z m43 -300 c5 -139 4 -223 -2 -223 -10 0 -31 529
-22 565 6 25 18 -140 24 -342z m-333 180 c1 -87 4 -218 8 -291 3 -72 3 -132
-1 -132 -7 0 -15 130 -24 393 -4 130 -2 187 5 187 7 0 11 -52 12 -157z"/>
<path d="M546 3712 c-93 -65 -171 -122 -173 -128 -2 -6 23 -23 57 -38 l60 -27
-7 -88 c-6 -88 -6 -89 20 -106 29 -18 241 -95 260 -94 7 0 -25 13 -69 29 -45
15 -110 40 -144 56 l-62 28 7 91 7 92 -57 23 c-30 12 -54 28 -52 34 4 14 308
225 325 226 13 0 200 -121 306 -198 l48 -36 -65 -33 c-61 -30 -67 -37 -77 -75
-7 -24 -30 -89 -52 -145 l-40 -102 -32 5 c-29 4 -30 4 -7 -6 14 -6 30 -9 36
-6 14 5 88 181 105 247 11 43 16 48 73 75 33 16 62 34 64 39 3 8 -331 246
-355 252 -4 1 -83 -51 -176 -115z"/>
<path d="M575 3699 c-72 -49 -136 -96 -144 -104 -12 -12 -3 -19 62 -50 73 -34
104 -55 53 -35 -22 8 -24 6 -30 -28 -3 -20 -6 -58 -6 -83 l0 -47 52 -22 c136
-58 254 -92 266 -77 15 20 69 159 83 216 13 52 15 54 72 79 56 24 57 26 40 42
-34 32 -289 200 -304 200 -8 0 -72 -41 -144 -91z m171 -101 c18 -23 18 -23 -1
-6 -18 17 -20 16 -54 -8 l-36 -25 35 30 c19 17 35 31 36 31 0 0 9 -10 20 -22z
m45 -35 c13 -16 12 -17 -3 -4 -10 7 -18 15 -18 17 0 8 8 3 21 -13z m63 -42 c3
-5 -1 -11 -9 -14 -9 -4 -12 -1 -8 9 6 16 10 17 17 5z m-64 -44 c0 -2 -10 -12
-22 -23 l-23 -19 19 23 c18 21 26 27 26 19z m-75 -42 l20 -16 -20 10 c-11 5
-29 17 -40 26 l-20 16 20 -10 c11 -5 29 -17 40 -26z"/>
<path d="M9547 3738 c-56 -158 -187 -533 -187 -535 0 -1 14 0 30 4 20 4 70 -6
146 -27 111 -32 137 -45 146 -72 4 -10 10 -10 31 -1 22 10 42 9 119 -11 114
-29 140 -39 157 -60 7 -9 17 -16 21 -16 4 0 18 37 30 83 12 45 48 174 81 287
56 194 66 240 54 240 -3 0 -27 -11 -53 -24 -47 -24 -48 -24 -82 -5 -39 20
-139 26 -170 9 -15 -8 -25 -3 -52 24 -33 33 -115 66 -163 66 -15 0 -31 14 -49
40 -14 22 -30 40 -35 40 -5 0 -16 -19 -24 -42z m-52 -245 c-48 -136 -94 -255
-103 -263 -13 -13 -13 -13 -4 5 5 11 45 121 87 245 99 286 95 274 101 267 4
-3 -33 -118 -81 -254z m59 93 c-20 -59 -39 -104 -42 -102 -2 3 13 55 34 116
21 61 40 107 42 102 1 -5 -14 -58 -34 -116z m172 89 c28 -8 62 -28 79 -45 l29
-30 -17 -68 c-28 -114 -28 -120 1 -32 32 96 47 110 125 110 47 0 96 -15 130
-42 17 -13 16 -19 -17 -128 -19 -63 -39 -135 -46 -160 -6 -25 -20 -76 -31
-113 l-20 -68 -35 26 c-49 37 -97 55 -149 55 l-47 0 6 33 c6 31 2 27 -16 -22
l-9 -24 -27 25 c-42 39 -68 49 -146 55 l-72 6 71 206 c38 114 74 212 78 219
11 16 53 15 113 -3z m415 -145 c-11 -36 -45 -159 -77 -274 -32 -115 -59 -205
-61 -200 -2 5 26 114 62 243 36 129 65 238 65 242 0 14 21 62 25 57 2 -2 -4
-33 -14 -68z m-27 3 c-8 -27 -16 -52 -19 -58 -8 -16 7 58 16 83 15 40 17 23 3
-25z m-625 -132 c-12 -34 -23 -60 -25 -58 -2 2 6 32 17 66 12 34 23 60 25 58
2 -2 -6 -32 -17 -66z m592 2 c-7 -26 -21 -77 -31 -113 -11 -36 -29 -98 -41
-138 -12 -40 -23 -71 -26 -69 -2 3 16 74 40 158 25 85 48 169 52 187 4 18 9
31 12 28 3 -3 0 -27 -6 -53z m-641 -124 c-11 -24 -20 -39 -20 -32 0 15 32 84
37 79 2 -1 -6 -23 -17 -47z m150 -59 c20 -6 21 -8 5 -8 -11 0 -33 4 -50 8 -27
7 -27 8 -5 8 14 0 36 -4 50 -8z m-43 -16 c-3 -3 -12 -4 -19 -1 -8 3 -5 6 6 6
11 1 17 -2 13 -5z m125 -24 c18 -16 27 -30 21 -30 -7 0 -13 5 -13 10 0 6 -15
19 -32 30 -18 11 -27 20 -21 20 7 0 27 -13 45 -30z m105 -46 c-3 -3 -12 -4
-19 -1 -8 3 -5 6 6 6 11 1 17 -2 13 -5z"/>
<path d="M9771 3364 c0 -11 3 -14 6 -6 3 7 2 16 -1 19 -3 4 -6 -2 -5 -13z"/>
<path d="M9746 3284 c-4 -14 -5 -28 -3 -31 3 -2 8 8 11 23 4 14 5 28 3 31 -3
2 -8 -8 -11 -23z"/>
<path d="M9588 3273 c7 -3 16 -2 19 1 4 3 -2 6 -13 5 -11 0 -14 -3 -6 -6z"/>
<path d="M176 3339 c-37 -20 -41 -20 -89 -5 -27 9 -59 16 -71 15 -11 0 3 -7
33 -14 99 -24 98 -17 34 -273 -46 -184 -58 -220 -69 -211 -11 9 -14 7 -14 -8
0 -17 77 -91 84 -82 1 2 37 138 78 302 47 185 72 297 65 297 -7 -1 -30 -10
-51 -21z m-35 -285 c-38 -148 -70 -261 -70 -251 -2 34 127 532 135 524 2 -2
-27 -125 -65 -273z m-3 98 c-22 -89 -43 -161 -45 -158 -2 2 13 70 33 152 42
175 43 178 49 172 3 -2 -14 -77 -37 -166z m-51 -194 c-3 -8 -6 -5 -6 6 -1 11
2 17 5 13 3 -3 4 -12 1 -19z m-21 -89 c-8 -35 -14 -56 -15 -47 -1 23 20 120
25 115 2 -2 -2 -33 -10 -68z"/>
<path d="M1758 2813 c6 -2 18 -2 25 0 6 3 1 5 -13 5 -14 0 -19 -2 -12 -5z"/>
<path d="M1820 2800 c14 -4 32 -8 40 -9 13 -1 13 0 0 9 -8 5 -26 9 -40 9 l-25
-1 25 -8z"/>
<path d="M1880 2790 c0 -6 7 -10 15 -10 8 0 15 2 15 4 0 2 -7 6 -15 10 -8 3
-15 1 -15 -4z"/>
<path d="M2020 2722 c0 -12 5 -24 10 -27 6 -3 10 -14 9 -23 0 -12 -3 -11 -9 6
-5 12 -12 22 -16 22 -6 0 -112 -102 -378 -362 -94 -91 -117 -119 -109 -130 6
-7 12 -16 12 -20 1 -5 3 -7 5 -5 8 4 56 -46 51 -53 -4 -7 32 -45 43 -45 13 0
91 -92 84 -100 -4 -5 -2 -5 4 -2 15 9 68 -48 59 -64 -5 -7 -4 -10 2 -6 6 4 18
-2 28 -13 10 -11 22 -20 27 -20 4 0 116 108 248 241 132 132 244 237 250 234
6 -3 7 1 4 9 -3 9 -22 26 -42 38 -21 12 -65 49 -99 82 -35 32 -63 55 -63 51 0
-5 -15 6 -34 24 -20 20 -32 39 -29 48 4 11 13 7 37 -16 18 -17 37 -31 44 -31
7 0 11 -3 10 -7 -2 -5 1 -9 6 -11 6 -1 11 4 12 13 1 8 -3 15 -9 15 -7 0 -5 5
3 10 10 6 11 10 3 10 -20 0 -15 30 5 30 10 0 13 3 6 8 -6 4 -10 15 -8 25 1 9
-2 15 -7 11 -5 -3 -9 0 -9 7 0 9 -3 9 -14 0 -11 -9 -14 -8 -12 5 1 17 -48 48
-96 59 -24 6 -28 4 -28 -13z m-61 -128 c-29 -29 -57 -50 -63 -47 -6 3 -8 2 -3
-2 9 -11 -23 -46 -35 -39 -4 3 -7 0 -6 -8 2 -7 -3 -12 -9 -11 -7 2 -12 0 -11
-5 1 -4 -54 -62 -123 -129 -113 -110 -149 -139 -149 -115 0 11 233 227 242
225 4 -2 7 2 5 8 -3 14 197 200 202 187 2 -5 -20 -34 -50 -64z m101 46 c0 -5
-2 -10 -4 -10 -3 0 -8 5 -11 10 -3 6 -1 10 4 10 6 0 11 -4 11 -10z m-43 -32
c-2 -7 -10 -12 -16 -10 -7 1 -9 -2 -6 -8 8 -12 -33 -62 -44 -55 -4 2 -13 0
-21 -6 -12 -6 -12 -9 -2 -9 10 0 10 -4 -2 -16 -9 -8 -22 -12 -28 -8 -7 4 -9 3
-5 -1 9 -11 -243 -266 -255 -259 -5 3 -7 0 -6 -7 2 -7 -6 -15 -17 -17 -11 -2
72 89 185 202 189 191 229 226 217 194z m73 -53 c24 -24 46 -42 50 -40 4 2 29
-19 56 -48 42 -44 43 -46 7 -12 -52 47 -57 36 -8 -15 l36 -37 -207 -199 c-113
-109 -210 -201 -216 -203 -11 -4 -89 69 -149 141 l-39 46 147 145 c82 80 151
149 155 153 4 4 16 1 25 -7 16 -12 17 -12 7 1 -15 20 -14 49 2 43 6 -2 27 14
45 36 19 22 36 41 39 41 3 0 26 -20 50 -45z m170 -173 c0 -13 -76 -83 -83 -77
-4 3 -5 2 -3 -1 2 -3 -17 -24 -42 -47 -26 -22 -104 -97 -174 -166 -70 -69
-130 -122 -133 -119 -6 6 100 116 287 296 117 112 148 136 148 114z m-131
-190 c-91 -92 -192 -195 -224 -230 l-59 -62 -85 92 c-159 172 -176 194 -63 83
62 -60 112 -115 112 -122 0 -30 32 -5 174 135 204 202 296 285 304 278 3 -4
-68 -82 -159 -174z m-508 -79 c13 -16 12 -17 -3 -4 -17 13 -22 21 -14 21 2 0
10 -8 17 -17z"/>
<path d="M1959 2613 c-13 -16 -12 -17 4 -4 9 7 17 15 17 17 0 8 -8 3 -21 -13z"/>
<path d="M1749 2413 c-13 -16 -12 -17 4 -4 9 7 17 15 17 17 0 8 -8 3 -21 -13z"/>
<path d="M1709 2373 c-13 -16 -12 -17 4 -4 9 7 17 15 17 17 0 8 -8 3 -21 -13z"/>
<path d="M1609 2273 l-34 -38 38 34 c20 19 37 36 37 38 0 8 -8 0 -41 -34z"/>
<path d="M1959 2563 c-13 -16 -12 -17 4 -4 16 13 21 21 13 21 -2 0 -10 -8 -17
-17z"/>
<path d="M1760 2363 l-125 -128 128 125 c70 69 127 126 127 127 0 8 -14 -6
-130 -124z"/>
<path d="M2110 2485 c47 -47 87 -85 90 -85 2 0 -33 38 -80 85 -47 47 -87 85
-90 85 -2 0 33 -38 80 -85z"/>
<path d="M2060 2475 c35 -36 67 -65 69 -65 3 0 -24 29 -59 65 -35 36 -67 65
-69 65 -3 0 24 -29 59 -65z"/>
<path d="M1840 2276 c0 -2 8 -10 18 -17 15 -13 16 -12 3 4 -13 16 -21 21 -21
13z"/>
<path d="M1780 2116 c0 -2 8 -10 18 -17 15 -13 16 -12 3 4 -13 16 -21 21 -21
13z"/>
<path d="M767 2488 c-61 -61 -100 -101 -86 -90 14 12 29 19 34 15 4 -5 5 -3 2
3 -4 7 0 17 8 24 8 7 15 9 15 4 0 -4 16 7 35 26 18 18 33 38 32 44 -1 6 4 10
11 8 8 -1 11 2 7 8 -3 5 -1 10 5 10 16 0 70 39 70 51 0 23 -28 1 -133 -103z"/>
<path d="M2105 2570 c16 -16 31 -28 33 -25 7 7 -39 55 -52 55 -5 0 3 -13 19
-30z"/>
<path d="M634 2345 c-19 -29 -72 -168 -80 -212 -3 -17 -12 -34 -20 -37 -20 -8
-11 -38 48 -168 27 -59 46 -113 42 -119 -4 -7 -3 -9 3 -6 6 4 39 -57 78 -144
38 -82 72 -152 77 -156 5 -3 19 4 31 15 37 35 248 123 278 117 21 -5 28 -2 32
15 4 14 10 19 18 14 8 -4 10 -3 5 4 -4 7 -2 13 3 13 6 1 14 2 19 3 4 0 21 10
37 22 56 38 152 75 179 68 18 -4 26 -2 26 7 0 18 -280 579 -289 579 -4 0 -16
-22 -28 -49 -21 -50 -30 -55 -112 -65 -13 -1 -28 -10 -33 -19 -5 -9 -14 -17
-19 -17 -6 0 -7 6 -3 12 12 19 -48 -30 -64 -53 -7 -10 -19 -16 -25 -13 -8 4
-7 2 1 -7 11 -12 14 -12 23 1 9 13 10 13 6 0 -3 -11 -16 -14 -50 -12 -27 2
-57 -3 -76 -12 -36 -19 -44 -20 -36 -3 4 6 1 5 -7 -3 -7 -8 -20 -15 -28 -15
-8 0 -14 -5 -13 -12 5 -24 -34 -34 -71 -19 -34 14 -35 15 -25 53 17 64 52 156
75 201 25 46 24 56 -2 17z m622 -285 c139 -275 144 -285 118 -255 -9 11 -59
106 -110 210 -51 105 -94 184 -94 178 0 -18 74 -180 133 -291 27 -51 46 -96
43 -99 -5 -6 -36 56 -197 395 -26 54 -38 90 -34 103 4 11 8 19 10 17 2 -2 61
-118 131 -258z m-173 181 c19 -8 47 -55 126 -217 55 -114 101 -208 101 -209 0
-1 -24 -5 -54 -8 -63 -6 -126 -36 -155 -73 l-20 -26 -88 174 c-134 266 -129
248 -79 297 26 25 104 64 143 71 1 0 13 -4 26 -9z m-163 -34 c0 -2 -12 -14
-27 -28 l-28 -24 24 28 c23 25 31 32 31 24z m-67 -93 c13 -5 217 -389 217
-408 0 -3 -20 -6 -45 -6 -56 0 -112 -27 -154 -75 -18 -21 -34 -35 -36 -33 -9
9 -194 407 -200 430 -5 21 -1 29 22 46 61 44 149 64 196 46z m-284 -57 c6 -8
9 -16 6 -19 -3 -2 34 -88 81 -189 114 -245 146 -320 140 -327 -3 -3 -17 21
-32 54 -14 32 -64 142 -111 244 -47 102 -92 200 -99 218 -14 32 -6 43 15 19z
m85 -136 c69 -136 148 -312 143 -317 -2 -2 -27 47 -57 109 -29 62 -74 155 -99
207 -25 52 -47 98 -49 103 -2 4 -1 7 2 7 3 0 30 -49 60 -109z m545 -144 c-16
-12 -79 -45 -79 -42 0 7 63 45 74 45 5 0 7 -1 5 -3z m100 -1 c-2 -2 -15 -9
-29 -15 -24 -11 -24 -11 -6 3 16 13 49 24 35 12z m-302 -102 c-3 -3 -12 -4
-19 -1 -8 3 -5 6 6 6 11 1 17 -2 13 -5z m-57 -18 c0 -2 -8 -10 -17 -17 -16
-13 -17 -12 -4 4 13 16 21 21 21 13z m-133 -88 c-3 -8 -6 -5 -6 6 -1 11 2 17
5 13 3 -3 4 -12 1 -19z"/>
<path d="M1120 2292 c0 -17 40 -95 46 -89 3 3 -6 27 -20 54 -14 26 -25 42 -26
35z"/>
<path d="M715 2150 c-3 -5 -1 -10 4 -10 6 0 11 5 11 10 0 6 -2 10 -4 10 -3 0
-8 -4 -11 -10z"/>
<path d="M520 2018 c0 -2 -6 -23 -14 -48 l-14 -46 25 2 c36 1 47 27 28 64 -13
25 -25 38 -25 28z"/>
<path d="M1923 1588 c-14 -18 -23 -59 -11 -52 6 4 7 -7 4 -28 -13 -74 -45
-291 -61 -408 -9 -69 -21 -135 -27 -148 -9 -16 -9 -25 -1 -33 6 -6 100 -24
209 -40 120 -17 200 -33 205 -40 15 -25 28 35 54 241 14 113 33 262 42 332 9
71 14 130 12 132 -2 3 -70 12 -149 21 -139 15 -183 21 -241 31 -15 3 -30 -1
-36 -8z m27 -28 c0 -5 -5 -10 -11 -10 -5 0 -7 5 -4 10 3 6 8 10 11 10 2 0 4
-4 4 -10z m135 -5 c128 -9 245 -28 245 -39 0 -6 -6 -47 -14 -91 -8 -44 -20
-130 -27 -192 -8 -70 -16 -110 -22 -106 -7 4 -8 -1 -3 -12 9 -24 -15 -245 -26
-245 -25 0 -24 8 33 417 17 117 27 217 24 223 -3 5 -27 10 -53 10 -63 0 -239
27 -260 40 -13 8 -10 9 13 5 17 -4 57 -8 90 -10z m-138 -62 c-3 -21 -20 -141
-37 -268 -35 -253 -37 -263 -49 -249 -14 14 66 554 81 554 6 0 8 -15 5 -37z
m158 22 c61 -8 114 -15 119 -15 8 0 5 -41 -8 -120 -3 -14 -17 -121 -32 -237
l-28 -213 -30 0 c-30 0 -134 13 -203 25 -42 7 -42 -1 2 312 19 136 35 251 35
256 0 10 19 9 145 -8z m171 -47 c-9 -43 -53 -376 -62 -459 -4 -37 -10 -73 -15
-80 -16 -26 -20 0 -10 57 17 96 43 292 52 396 8 101 13 118 31 118 7 0 8 -12
4 -32z m-231 -547 c77 -10 143 -17 148 -14 4 2 7 -3 7 -11 0 -20 3 -20 -170 4
-79 11 -145 20 -147 20 -2 0 -3 5 -3 10 0 13 -2 13 165 -9z"/>
<path d="M2038 963 c6 -2 18 -2 25 0 6 3 1 5 -13 5 -14 0 -19 -2 -12 -5z"/>
<path d="M2118 953 c7 -3 16 -2 19 1 4 3 -2 6 -13 5 -11 0 -14 -3 -6 -6z"/>
<path d="M1193 1438 c-4 -7 -8 -24 -8 -38 0 -14 -5 -24 -12 -23 -8 2 -10 -4
-6 -14 4 -11 3 -14 -5 -9 -8 5 -10 1 -5 -10 4 -12 3 -15 -5 -10 -8 5 -10 2 -6
-9 4 -10 2 -15 -7 -13 -8 2 -14 -6 -15 -17 -2 -40 -4 -46 -14 -40 -6 3 -7 -1
-4 -10 4 -10 2 -15 -7 -13 -8 2 -14 -6 -15 -17 -2 -40 -4 -46 -14 -40 -6 4 -7
-1 -3 -11 4 -12 3 -15 -5 -10 -8 5 -10 1 -5 -10 5 -13 3 -15 -7 -9 -8 5 -11 4
-7 -3 10 -15 -3 -43 -16 -35 -6 3 -7 1 -3 -5 9 -15 -32 -95 -44 -87 -6 4 -7
-1 -3 -11 5 -13 3 -15 -7 -9 -9 6 -11 4 -5 -5 10 -16 -45 -131 -58 -123 -6 3
-7 1 -3 -5 17 -28 -8 -32 -42 -6 l-37 27 33 -35 c22 -24 30 -38 22 -43 -14 -9
6 -35 26 -35 8 0 69 -31 137 -69 135 -77 164 -91 153 -73 -4 7 -2 12 4 12 7 0
10 -6 7 -12 -6 -16 10 -48 24 -48 15 0 35 23 44 49 9 30 272 538 296 573 24
34 24 47 2 54 -10 3 -91 42 -180 87 -116 59 -163 87 -163 100 0 20 -25 23 -37
5z m192 -120 c85 -45 152 -85 149 -90 -3 -4 -13 -4 -22 1 -9 5 -39 19 -67 31
-27 12 -85 43 -128 67 -44 24 -81 42 -84 40 -6 -6 94 -63 210 -118 60 -29 84
-45 78 -53 -5 -6 -59 -108 -121 -226 -160 -306 -173 -330 -180 -330 -4 0 -45
23 -91 50 -46 28 -108 62 -136 78 -29 15 -52 29 -50 32 1 3 62 125 134 272
l131 268 69 -39 c78 -44 213 -105 219 -98 2 2 -41 25 -96 51 -146 67 -178 89
-176 120 0 15 2 26 4 26 2 0 73 -37 157 -82z m-175 58 c0 -3 -60 -128 -134
-279 -119 -246 -156 -311 -156 -278 0 17 274 561 282 561 5 0 8 -2 8 -4z m195
-465 c-81 -154 -151 -281 -156 -281 -11 0 -12 13 0 26 4 5 63 115 131 244 133
256 160 303 167 297 2 -3 -62 -131 -142 -286z m-307 -218 c86 -50 116 -74 75
-59 -38 15 -253 140 -253 148 0 10 57 -18 178 -89z"/>
<path d="M1120 1101 c-41 -85 -93 -187 -116 -226 l-40 -72 64 -33 c35 -18 91
-50 124 -72 33 -21 62 -37 64 -35 5 5 -93 69 -179 117 -40 22 -55 35 -49 43
21 26 213 411 210 421 -2 6 -37 -58 -78 -143z"/>
<path d="M6487 1433 c-8 -13 -257 -583 -257 -588 0 -3 11 -5 25 -5 29 0 93
-22 208 -70 64 -27 81 -38 89 -61 10 -30 22 -37 34 -18 4 6 20 9 39 6 56 -9
208 -79 242 -110 18 -17 34 -29 36 -26 6 6 77 186 97 243 9 28 48 129 85 224
37 95 65 175 63 178 -3 2 -28 -4 -56 -15 -50 -20 -50 -20 -91 0 -23 11 -56 22
-74 25 -18 3 -6 -4 28 -16 68 -25 85 -36 85 -57 0 -18 -143 -390 -172 -446
l-19 -38 -48 44 c-50 44 -104 67 -161 67 -25 0 -31 4 -26 15 16 39 16 47 0 20
-9 -16 -18 -32 -20 -34 -2 -2 -20 12 -39 32 -37 38 -74 52 -167 63 l-56 7 30
66 c17 36 59 133 95 216 35 82 70 157 78 165 11 13 10 23 -8 67 -21 51 -31 62
-40 46z m-62 -213 c-65 -140 -75 -168 -66 -187 9 -20 5 -36 -25 -94 -19 -39
-38 -69 -41 -66 -3 3 4 21 16 40 11 19 18 37 14 40 -3 4 -1 7 6 7 8 0 11 6 7
16 -3 8 -2 13 2 10 5 -3 9 9 9 27 0 28 -4 24 -29 -33 -15 -36 -35 -78 -43 -95
-13 -25 -14 -26 -9 -5 11 44 229 530 232 517 1 -6 -32 -86 -73 -177z m39 11
c-26 -60 -52 -107 -57 -104 -5 3 -7 -3 -4 -13 4 -11 1 -28 -6 -39 -14 -24 -39
-32 -31 -10 4 8 11 12 17 8 6 -4 8 0 4 11 -5 11 -3 15 5 10 8 -5 9 -2 5 10 -4
10 16 63 50 137 32 67 59 117 61 111 2 -6 -18 -60 -44 -121z m651 -78 c-9 -20
-59 -152 -111 -292 -53 -141 -100 -260 -105 -265 -17 -18 -9 10 22 85 16 41
64 164 105 273 41 109 79 207 85 217 17 33 20 20 4 -18z m-28 -5 c-21 -52
-190 -487 -194 -500 -5 -16 -23 -26 -23 -12 0 3 40 105 89 227 48 122 94 239
100 260 7 20 17 37 23 37 6 0 8 -6 5 -12z m-644 -315 c-7 -2 -19 -2 -25 0 -7
3 -2 5 12 5 14 0 19 -2 13 -5z m112 -53 c10 -11 16 -20 13 -20 -3 0 -13 9 -23
20 -10 11 -16 20 -13 20 3 0 13 -9 23 -20z m157 -40 c20 -6 47 -19 60 -30 21
-17 19 -17 -21 2 -24 12 -71 24 -105 28 -56 7 -57 7 -16 9 25 0 62 -4 82 -9z"/>
<path d="M6578 1323 c7 -3 16 -2 19 1 4 3 -2 6 -13 5 -11 0 -14 -3 -6 -6z"/>
<path d="M6618 1313 c7 -3 16 -2 19 1 4 3 -2 6 -13 5 -11 0 -14 -3 -6 -6z"/>
<path d="M6682 1290 c42 -23 78 -65 78 -92 0 -10 -30 -93 -66 -184 -36 -91
-64 -168 -61 -171 3 -2 8 6 12 19 28 91 130 316 153 337 26 24 26 24 4 18 -19
-4 -30 2 -54 29 -29 33 -77 65 -95 64 -4 -1 8 -10 29 -20z"/>
<path d="M2670 1266 c0 -7 -7 -19 -15 -26 -8 -6 -14 -15 -13 -18 1 -4 -4 -18
-11 -30 -7 -13 -15 -36 -17 -50 -3 -15 -10 -32 -16 -39 -6 -8 -7 -13 -1 -13
12 0 67 119 59 127 -3 3 1 12 9 20 14 14 21 43 10 43 -3 0 -5 -6 -5 -14z"/>
<path d="M3415 1233 c-99 -8 -182 -17 -184 -19 -2 -2 8 -22 23 -44 14 -22 26
-44 26 -49 0 -4 -31 -25 -70 -45 -38 -21 -70 -43 -70 -50 0 -30 186 -336 204
-336 6 0 52 14 103 31 l92 31 46 -22 c25 -12 48 -20 50 -18 4 4 -7 83 -20 144
-4 20 -2 20 66 11 39 -5 73 -6 76 -4 8 8 -107 349 -125 370 -8 9 -20 16 -26
16 -6 -1 -92 -8 -191 -16z m271 -178 c32 -96 56 -176 54 -178 -3 -3 -36 -1
-74 4 -38 5 -71 8 -72 6 -1 -1 5 -35 14 -74 8 -40 13 -75 10 -78 -3 -3 -22 2
-42 12 -36 17 -38 17 -137 -16 -55 -18 -102 -31 -103 -29 -25 31 -186 309
-186 322 0 2 34 23 75 45 41 23 75 45 75 49 -1 4 -14 25 -29 47 l-29 40 131
11 c73 6 160 11 194 12 l62 2 57 -175z"/>
<path d="M3386 1199 c-55 -5 -102 -11 -104 -14 -3 -3 1 -13 10 -22 17 -21 58
-91 58 -101 0 -3 -7 3 -15 15 l-15 22 -73 -39 c-52 -29 -71 -44 -69 -57 5 -21
138 -242 160 -265 16 -16 22 -16 106 13 76 26 95 30 123 21 l34 -10 -7 36 c-3
21 -10 52 -15 71 -4 19 -7 36 -6 38 2 1 35 -1 73 -6 38 -5 71 -7 73 -5 3 3
-12 51 -66 212 l-35 102 -67 -1 c-36 -1 -111 -6 -165 -10z m91 -125 c-3 -3
-12 -4 -19 -1 -8 3 -5 6 6 6 11 1 17 -2 13 -5z m-37 -8 c0 -2 -7 -7 -16 -10
-8 -3 -12 -2 -9 4 6 10 25 14 25 6z m-92 -50 c-7 -8 -15 -12 -17 -11 -5 6 10
25 20 25 5 0 4 -6 -3 -14z m32 -76 c6 -11 8 -20 6 -20 -3 0 -10 9 -16 20 -6
11 -8 20 -6 20 3 0 10 -9 16 -20z m157 -16 c-3 -3 -12 -4 -19 -1 -8 3 -5 6 6
6 11 1 17 -2 13 -5z m-107 -34 c-8 -5 -19 -10 -25 -10 -5 0 -3 5 5 10 8 5 20
10 25 10 6 0 3 -5 -5 -10z"/>
<path d="M6848 1223 c7 -3 16 -2 19 1 4 3 -2 6 -13 5 -11 0 -14 -3 -6 -6z"/>
<path d="M635 1103 c49 -77 108 -152 146 -188 40 -36 39 -35 -7 15 -28 31 -72
88 -99 128 -26 39 -50 72 -53 72 -2 0 4 -12 13 -27z"/>
<path d="M6920 1076 c0 -2 8 -10 18 -17 15 -13 16 -12 3 4 -13 16 -21 21 -21
13z"/>
<path d="M5780 1056 c-8 -8 -91 -51 -185 -95 -93 -44 -170 -84 -170 -88 0 -16
350 -693 359 -693 5 0 86 36 182 80 95 44 180 77 189 74 19 -8 32 24 17 45
-21 31 -328 626 -337 656 -12 34 -33 42 -55 21z m0 -36 c0 -5 -2 -10 -4 -10
-3 0 -8 5 -11 10 -3 6 -1 10 4 10 6 0 11 -4 11 -10z m207 -316 c84 -164 153
-302 153 -305 0 -3 -10 -11 -22 -17 -50 -25 -284 -124 -297 -125 -8 -1 -73
114 -167 298 -85 165 -154 303 -154 306 0 12 292 141 300 132 9 -10 139 -262
239 -462 40 -79 75 -141 78 -138 3 3 -66 144 -152 313 -86 168 -151 304 -143
302 7 -3 82 -139 165 -304z m-292 276 c3 -5 1 -10 -4 -10 -6 0 -11 5 -11 10 0
6 2 10 4 10 3 0 8 -4 11 -10z m-203 -143 c5 -10 6 -22 2 -29 -4 -6 -3 -8 2 -5
12 7 240 -448 236 -470 -2 -8 1 -12 6 -9 5 3 21 -17 36 -44 15 -28 29 -50 32
-50 3 0 19 7 35 16 17 8 33 13 37 10 3 -3 0 -6 -7 -6 -7 0 -9 -5 -6 -11 4 -6
1 -10 -6 -8 -26 3 -40 -1 -34 -10 5 -9 -33 -27 -40 -19 -1 1 -77 150 -169 330
-112 220 -160 325 -150 324 9 -1 20 -10 26 -19z m598 -492 c0 -8 -122 -67
-127 -61 -3 3 -12 -2 -20 -10 -8 -8 -19 -11 -24 -8 -14 8 -13 9 76 48 83 35
95 39 95 31z"/>
<path d="M5720 935 c-36 -19 -60 -34 -55 -34 6 0 39 15 75 34 36 19 61 34 55
34 -5 0 -39 -15 -75 -34z"/>
<path d="M5790 900 c-8 -5 -10 -10 -5 -10 6 0 17 5 25 10 8 5 11 10 5 10 -5 0
-17 -5 -25 -10z"/>
<path d="M5815 850 c-3 -6 1 -7 9 -4 18 7 21 14 7 14 -6 0 -13 -4 -16 -10z"/>
<path d="M5900 680 c-8 -5 -10 -10 -5 -10 6 0 17 5 25 10 8 5 11 10 5 10 -5 0
-17 -5 -25 -10z"/>
<path d="M6000 440 c-9 -6 -10 -10 -3 -10 6 0 15 5 18 10 8 12 4 12 -15 0z"/>
<path d="M6050 400 c-8 -5 -10 -10 -5 -10 6 0 17 5 25 10 8 5 11 10 5 10 -5 0
-17 -5 -25 -10z"/>
<path d="M5970 370 c-8 -5 -10 -10 -5 -10 6 0 17 5 25 10 8 5 11 10 5 10 -5 0
-17 -5 -25 -10z"/>
<path d="M2570 1049 c0 -5 5 -7 10 -4 6 3 10 8 10 11 0 2 -4 4 -10 4 -5 0 -10
-5 -10 -11z"/>
<path d="M2553 1025 c0 -8 4 -12 9 -9 5 3 6 10 3 15 -9 13 -12 11 -12 -6z"/>
<path d="M2068 853 c6 -2 18 -2 25 0 6 3 1 5 -13 5 -14 0 -19 -2 -12 -5z"/>
<path d="M2133 844 c3 -4 25 -8 49 -9 30 -2 37 0 23 5 -23 10 -81 13 -72 4z"/>
<path d="M4641 674 c-25 -14 -95 -73 -156 -132 -121 -117 -331 -312 -382 -354
-39 -32 -41 -41 -8 -62 13 -9 43 -41 66 -71 23 -31 44 -53 47 -50 3 3 -3 14
-13 25 -10 11 -16 23 -13 25 3 3 17 -8 32 -25 17 -20 33 -30 47 -28 18 3 14
11 -35 70 l-55 66 42 38 c23 20 68 62 101 93 l58 55 31 -34 c134 -154 260
-290 264 -286 3 2 -61 78 -141 167 -81 89 -144 165 -140 168 3 3 20 -10 37
-29 18 -20 88 -98 156 -173 67 -76 125 -136 128 -133 3 3 -37 51 -88 108 -124
136 -209 234 -209 240 0 3 56 54 124 113 121 104 205 202 192 224 -11 17 -38
13 -85 -15z m55 -21 c-17 -32 -73 -93 -85 -93 -5 0 -16 11 -24 24 -16 23 -15
25 21 49 84 56 111 62 88 20z m-121 -89 c16 -24 16 -27 -1 -45 -17 -19 -18
-19 -41 3 l-23 22 22 23 c12 13 22 23 24 23 1 0 9 -12 19 -26z m-107 -136
c-35 -32 -67 -58 -73 -58 -5 0 -4 4 3 9 10 6 10 10 -3 21 -14 12 -10 20 42 72
l58 58 17 -22 c18 -23 18 -23 -44 -80z m-88 -39 c0 -6 -4 -7 -10 -4 -5 3 -10
11 -10 16 0 6 5 7 10 4 6 -3 10 -11 10 -16z m-27 -69 c-112 -102 -194 -172
-199 -168 -3 3 18 25 45 49 28 24 51 48 51 52 0 5 -24 -12 -54 -37 -101 -87
-81 -45 29 59 l110 105 18 -22 c17 -21 17 -22 0 -38z m-235 -185 c-3 -3 -9 2
-12 12 -6 14 -5 15 5 6 7 -7 10 -15 7 -18z m93 -67 c24 -29 36 -47 26 -39 -20
16 -81 91 -74 91 3 0 25 -24 48 -52z m-31 -1 c0 -6 -9 -2 -20 8 -11 10 -20 23
-20 28 0 6 9 2 20 -8 11 -10 20 -23 20 -28z"/>
<path d="M2200 650 c-9 -6 -10 -10 -3 -10 6 0 15 5 18 10 8 12 4 12 -15 0z"/>
<path d="M3089 583 c-68 -61 -285 -259 -348 -319 l-24 -22 34 -15 c40 -16 155
-136 184 -190 l20 -38 64 2 65 2 -38 33 c-21 18 -43 32 -48 31 -5 -1 -15 15
-22 36 -18 50 -31 64 -95 100 l-54 31 79 73 c162 152 247 223 263 223 23 0 98
-65 116 -101 33 -62 26 -74 -127 -223 -138 -134 -139 -135 -23 -29 66 61 129
120 139 132 46 50 149 6 211 -91 16 -26 16 -30 1 -52 -8 -13 -52 -56 -96 -95
-44 -39 -74 -71 -65 -71 8 0 57 41 109 91 53 50 101 89 107 87 6 -2 -32 -42
-85 -88 -52 -47 -91 -87 -86 -88 6 -2 52 35 104 82 51 47 97 86 102 86 4 0
-32 -37 -81 -83 l-89 -84 47 -1 c48 -2 48 -2 44 27 -4 24 4 37 54 87 32 31 56
61 53 65 -2 4 -23 10 -45 14 -33 6 -54 20 -104 71 -50 51 -70 65 -103 70 -40
6 -42 8 -42 43 0 47 -29 93 -82 131 -23 17 -43 39 -43 48 -1 9 -2 34 -3 55 -1
20 -5 37 -10 37 -4 0 -42 -30 -83 -67z m60 13 c-8 -7 -70 -64 -139 -127 -212
-193 -242 -220 -247 -215 -2 2 15 22 39 44 24 21 113 102 198 180 84 78 156
139 159 136 3 -2 -2 -10 -10 -18z m-4 -54 c-14 -13 -16 -14 -10 -2 4 8 -7 -2
-24 -22 -18 -21 -35 -37 -39 -36 -4 1 -34 -25 -66 -56 -61 -59 -200 -176 -210
-176 -3 0 43 44 102 97 59 53 140 128 181 167 48 46 76 66 79 58 2 -8 -4 -21
-13 -30z m-280 -372 c33 -33 57 -60 54 -60 -2 0 -31 27 -64 60 -33 33 -57 60
-54 60 2 0 31 -27 64 -60z m71 -21 c3 -6 -5 -3 -20 6 -14 10 -26 19 -26 22 0
7 39 -17 46 -28z m34 -63 c0 -12 -5 -7 -19 24 -11 24 -11 24 3 6 9 -11 16 -24
16 -30z m520 -40 c0 -2 -12 -11 -27 -20 l-28 -17 24 20 c23 21 31 25 31 17z
m-464 -22 c18 -15 18 -15 -2 -5 -12 6 -24 7 -28 4 -3 -3 -6 -1 -6 5 0 16 12
15 36 -4z"/>
<path d="M3084 508 l-19 -23 23 19 c12 11 22 21 22 23 0 8 -8 2 -26 -19z"/>
<path d="M7180 544 c-63 -41 -104 -79 -354 -323 l-179 -175 27 -23 c26 -22 89
-33 84 -15 -2 5 44 53 101 108 l103 98 104 -109 c57 -61 103 -106 104 -101 0
4 -46 55 -101 112 -56 58 -99 107 -96 110 3 3 58 -48 123 -113 64 -65 106
-105 93 -88 -13 17 -28 35 -34 40 -5 6 -46 47 -89 93 l-79 82 115 110 c110
104 178 187 178 217 0 24 -44 14 -100 -23z m73 -5 c-22 -38 -82 -109 -91 -109
-4 0 -15 12 -25 26 -18 25 -18 26 0 40 26 21 117 74 126 74 5 0 0 -14 -10 -31z
m-127 -105 c16 -24 16 -26 -2 -45 -20 -19 -20 -19 -43 5 -22 24 -22 25 -4 44
24 27 30 27 49 -4z m-87 -120 c-37 -37 -51 -45 -68 -39 -17 5 -20 12 -15 28
l7 22 -24 -20 c-17 -14 -16 -10 5 12 16 18 32 30 36 28 4 -2 20 9 36 26 l28
29 20 -20 21 -20 -46 -46z m-188 -186 c-95 -92 -105 -99 -119 -84 -15 15 -13
19 23 56 49 50 34 53 -20 3 -22 -21 7 11 65 70 l105 107 25 -26 25 -25 -104
-101z m-157 -84 c3 -8 2 -12 -4 -9 -6 3 -10 10 -10 16 0 14 7 11 14 -7z"/>
<path d="M1928 553 c7 -3 16 -2 19 1 4 3 -2 6 -13 5 -11 0 -14 -3 -6 -6z"/>
<path d="M1448 543 c7 -3 16 -2 19 1 4 3 -2 6 -13 5 -11 0 -14 -3 -6 -6z"/>
<path d="M1888 543 c7 -3 16 -2 19 1 4 3 -2 6 -13 5 -11 0 -14 -3 -6 -6z"/>
<path d="M1513 533 c9 -2 23 -2 30 0 6 3 -1 5 -18 5 -16 0 -22 -2 -12 -5z"/>
<path d="M1813 533 c9 -2 25 -2 35 0 9 3 1 5 -18 5 -19 0 -27 -2 -17 -5z"/>
<path d="M1628 523 c28 -2 76 -2 105 0 28 2 5 3 -53 3 -58 0 -81 -1 -52 -3z"/>
</g>
</svg>
